<?xml version="1.0" encoding="utf-8" standalone="no"?>
<!DOCTYPE svg PUBLIC "-//W3C//DTD SVG 1.1//EN"
  "http://www.w3.org/Graphics/SVG/1.1/DTD/svg11.dtd">
<svg xmlns:xlink="http://www.w3.org/1999/xlink" width="460.8pt" height="345.6pt" viewBox="0 0 460.8 345.6" xmlns="http://www.w3.org/2000/svg" version="1.1">
 <metadata>
  <rdf:RDF xmlns:dc="http://purl.org/dc/elements/1.1/" xmlns:cc="http://creativecommons.org/ns#" xmlns:rdf="http://www.w3.org/1999/02/22-rdf-syntax-ns#">
   <cc:Work>
    <dc:type rdf:resource="http://purl.org/dc/dcmitype/StillImage"/>
    <dc:date>2025-07-20T13:42:47.694197</dc:date>
    <dc:format>image/svg+xml</dc:format>
    <dc:creator>
     <cc:Agent>
      <dc:title>Matplotlib v3.10.3, https://matplotlib.org/</dc:title>
     </cc:Agent>
    </dc:creator>
   </cc:Work>
  </rdf:RDF>
 </metadata>
 <defs>
  <style type="text/css">*{stroke-linejoin: round; stroke-linecap: butt}</style>
 </defs>
 <g id="figure_1">
  <g id="patch_1">
   <path d="M 0 345.6 
L 460.8 345.6 
L 460.8 0 
L 0 0 
L 0 345.6 
z
" style="fill: none"/>
  </g>
  <g id="axes_1">
   <g id="patch_2">
    <path d="M 57.6 307.584 
L 414.72 307.584 
L 414.72 41.472 
L 57.6 41.472 
L 57.6 307.584 
z
" style="fill: none"/>
   </g>
   <g id="FillBetweenPolyCollection_1">
    <path d="M 73.832727 208.93551 
L 73.832727 289.088904 
L 90.919809 269.645706 
L 108.00689 250.594048 
L 125.093971 231.190181 
L 142.181053 213.678738 
L 159.268134 193.336631 
L 176.355215 176.712406 
L 193.442297 160.273653 
L 210.529378 138.695892 
L 227.616459 212.320453 
L 244.703541 203.674651 
L 261.790622 195.289972 
L 278.877703 186.96164 
L 295.964785 176.193185 
L 313.051866 167.375905 
L 330.138947 158.68788 
L 347.226029 151.46862 
L 364.31311 138.55864 
L 381.400191 186.425435 
L 398.487273 179.973125 
L 398.487273 99.819731 
L 398.487273 99.819731 
L 381.400191 106.272041 
L 364.31311 58.405245 
L 347.226029 71.315226 
L 330.138947 78.534486 
L 313.051866 87.222511 
L 295.964785 96.039791 
L 278.877703 106.808246 
L 261.790622 115.136578 
L 244.703541 123.521257 
L 227.616459 132.167059 
L 210.529378 58.542498 
L 193.442297 80.120258 
L 176.355215 96.559012 
L 159.268134 113.183237 
L 142.181053 133.525343 
L 125.093971 151.036787 
L 108.00689 170.440654 
L 90.919809 189.492311 
L 73.832727 208.93551 
z
" clip-path="url(#pe9ccaad5ec)" style="fill: #1f77b4; fill-opacity: 0.2"/>
   </g>
   <g id="FillBetweenPolyCollection_2">
    <path d="M 73.832727 202.986273 
L 73.832727 295.488 
L 90.919809 295.403997 
L 108.00689 285.841534 
L 125.093971 276.171874 
L 142.181053 266.419044 
L 159.268134 256.482725 
L 176.355215 247.51057 
L 193.442297 237.403148 
L 210.529378 228.417963 
L 227.616459 218.592443 
L 244.703541 208.343987 
L 261.790622 199.392556 
L 278.877703 188.955651 
L 295.964785 180.382398 
L 313.051866 171.893864 
L 330.138947 161.311138 
L 347.226029 153.707311 
L 364.31311 146.069727 
L 381.400191 195.113258 
L 398.487273 217.784935 
L 398.487273 125.283207 
L 398.487273 125.283207 
L 381.400191 102.611531 
L 364.31311 53.568 
L 347.226029 61.205583 
L 330.138947 68.80941 
L 313.051866 79.392136 
L 295.964785 87.88067 
L 278.877703 96.453924 
L 261.790622 106.890828 
L 244.703541 115.84226 
L 227.616459 126.090715 
L 210.529378 135.916235 
L 193.442297 144.901421 
L 176.355215 155.008843 
L 159.268134 163.980998 
L 142.181053 173.917316 
L 125.093971 183.670147 
L 108.00689 193.339807 
L 90.919809 202.90227 
L 73.832727 202.986273 
z
" clip-path="url(#pe9ccaad5ec)" style="fill: #ff7f0e; fill-opacity: 0.2"/>
   </g>
   <g id="FillBetweenPolyCollection_3">
    <path d="M 73.832727 213.863238 
L 73.832727 284.265337 
L 90.919809 284.084903 
L 108.00689 284.201142 
L 125.093971 277.798106 
L 142.181053 271.452279 
L 159.268134 264.821433 
L 176.355215 258.569171 
L 193.442297 251.832085 
L 210.529378 246.314232 
L 227.616459 239.153669 
L 244.703541 232.937909 
L 261.790622 226.677618 
L 278.877703 220.737785 
L 295.964785 213.50239 
L 313.051866 206.771133 
L 330.138947 201.820694 
L 347.226029 196.23976 
L 364.31311 189.921897 
L 381.400191 183.254386 
L 398.487273 174.613866 
L 398.487273 104.211768 
L 398.487273 104.211768 
L 381.400191 112.852287 
L 364.31311 119.519799 
L 347.226029 125.837661 
L 330.138947 131.418596 
L 313.051866 136.369034 
L 295.964785 143.100292 
L 278.877703 150.335686 
L 261.790622 156.27552 
L 244.703541 162.53581 
L 227.616459 168.751571 
L 210.529378 175.912133 
L 193.442297 181.429986 
L 176.355215 188.167072 
L 159.268134 194.419334 
L 142.181053 201.050181 
L 125.093971 207.396008 
L 108.00689 213.799043 
L 90.919809 213.682805 
L 73.832727 213.863238 
z
" clip-path="url(#pe9ccaad5ec)" style="fill: #2ca02c; fill-opacity: 0.2"/>
   </g>
   <g id="FillBetweenPolyCollection_4">
    <path d="M 73.832727 223.319613 
L 73.832727 275.094259 
L 90.919809 274.760287 
L 108.00689 275.202171 
L 125.093971 275.126361 
L 142.181053 270.317597 
L 159.268134 265.177642 
L 176.355215 260.249763 
L 193.442297 255.861858 
L 210.529378 250.816338 
L 227.616459 246.028221 
L 244.703541 240.617794 
L 261.790622 236.886942 
L 278.877703 231.313256 
L 295.964785 226.877401 
L 313.051866 221.753903 
L 330.138947 216.849735 
L 347.226029 212.561764 
L 364.31311 207.588037 
L 381.400191 202.389588 
L 398.487273 196.792699 
L 398.487273 145.018053 
L 398.487273 145.018053 
L 381.400191 150.614942 
L 364.31311 155.813391 
L 347.226029 160.787118 
L 330.138947 165.075089 
L 313.051866 169.979257 
L 295.964785 175.102755 
L 278.877703 179.53861 
L 261.790622 185.112296 
L 244.703541 188.843148 
L 227.616459 194.253575 
L 210.529378 199.041692 
L 193.442297 204.087212 
L 176.355215 208.475117 
L 159.268134 213.402996 
L 142.181053 218.542951 
L 125.093971 223.351715 
L 108.00689 223.427525 
L 90.919809 222.985641 
L 73.832727 223.319613 
z
" clip-path="url(#pe9ccaad5ec)" style="fill: #d62728; fill-opacity: 0.2"/>
   </g>
   <g id="FillBetweenPolyCollection_5">
    <path d="M 73.832727 229.270315 
L 73.832727 268.979799 
L 90.919809 268.889413 
L 108.00689 268.980775 
L 125.093971 269.017382 
L 142.181053 269.081987 
L 159.268134 265.300348 
L 176.355215 261.236128 
L 193.442297 257.281973 
L 210.529378 253.441168 
L 227.616459 249.286978 
L 244.703541 245.592651 
L 261.790622 241.73301 
L 278.877703 237.804912 
L 295.964785 234.190464 
L 313.051866 230.272747 
L 330.138947 226.287472 
L 347.226029 222.504155 
L 364.31311 218.627577 
L 381.400191 214.261413 
L 398.487273 210.275047 
L 398.487273 170.565563 
L 398.487273 170.565563 
L 381.400191 174.551929 
L 364.31311 178.918092 
L 347.226029 182.79467 
L 330.138947 186.577988 
L 313.051866 190.563262 
L 295.964785 194.480979 
L 278.877703 198.095428 
L 261.790622 202.023526 
L 244.703541 205.883167 
L 227.616459 209.577494 
L 210.529378 213.731684 
L 193.442297 217.572488 
L 176.355215 221.526644 
L 159.268134 225.590864 
L 142.181053 229.372503 
L 125.093971 229.307898 
L 108.00689 229.271291 
L 90.919809 229.179929 
L 73.832727 229.270315 
z
" clip-path="url(#pe9ccaad5ec)" style="fill: #9467bd; fill-opacity: 0.2"/>
   </g>
   <g id="FillBetweenPolyCollection_6">
    <path d="M 73.832727 233.468936 
L 73.832727 264.937476 
L 90.919809 264.924783 
L 108.00689 264.872516 
L 125.093971 264.831471 
L 142.181053 265.010958 
L 159.268134 265.071563 
L 176.355215 261.884427 
L 193.442297 258.418229 
L 210.529378 255.378106 
L 227.616459 251.71008 
L 244.703541 248.809872 
L 261.790622 245.336171 
L 278.877703 242.253823 
L 295.964785 239.286146 
L 313.051866 235.581613 
L 330.138947 232.032865 
L 347.226029 229.340401 
L 364.31311 225.817002 
L 381.400191 222.116326 
L 398.487273 219.293033 
L 398.487273 187.824493 
L 398.487273 187.824493 
L 381.400191 190.647786 
L 364.31311 194.348462 
L 347.226029 197.871861 
L 330.138947 200.564325 
L 313.051866 204.113073 
L 295.964785 207.817606 
L 278.877703 210.785283 
L 261.790622 213.867631 
L 244.703541 217.341332 
L 227.616459 220.24154 
L 210.529378 223.909566 
L 193.442297 226.949689 
L 176.355215 230.415887 
L 159.268134 233.603023 
L 142.181053 233.542418 
L 125.093971 233.362931 
L 108.00689 233.403976 
L 90.919809 233.456243 
L 73.832727 233.468936 
z
" clip-path="url(#pe9ccaad5ec)" style="fill: #8c564b; fill-opacity: 0.2"/>
   </g>
   <g id="FillBetweenPolyCollection_7">
    <path d="M 73.832727 236.568973 
L 73.832727 261.581508 
L 90.919809 261.635261 
L 108.00689 261.622337 
L 125.093971 261.71733 
L 142.181053 261.61003 
L 159.268134 261.641757 
L 176.355215 261.586767 
L 193.442297 259.153327 
L 210.529378 256.140682 
L 227.616459 253.283201 
L 244.703541 250.59432 
L 261.790622 247.221658 
L 278.877703 244.839611 
L 295.964785 242.177037 
L 313.051866 239.561961 
L 330.138947 236.884154 
L 347.226029 233.808925 
L 364.31311 230.999926 
L 381.400191 228.338473 
L 398.487273 225.497836 
L 398.487273 200.485302 
L 398.487273 200.485302 
L 381.400191 203.325938 
L 364.31311 205.987391 
L 347.226029 208.796391 
L 330.138947 211.871619 
L 313.051866 214.549426 
L 295.964785 217.164502 
L 278.877703 219.827076 
L 261.790622 222.209124 
L 244.703541 225.581786 
L 227.616459 228.270666 
L 210.529378 231.128147 
L 193.442297 234.140792 
L 176.355215 236.574233 
L 159.268134 236.629223 
L 142.181053 236.597496 
L 125.093971 236.704795 
L 108.00689 236.609802 
L 90.919809 236.622726 
L 73.832727 236.568973 
z
" clip-path="url(#pe9ccaad5ec)" style="fill: #e377c2; fill-opacity: 0.2"/>
   </g>
   <g id="FillBetweenPolyCollection_8">
    <path d="M 73.832727 238.999246 
L 73.832727 259.420672 
L 90.919809 259.524268 
L 108.00689 259.451641 
L 125.093971 259.493047 
L 142.181053 259.367298 
L 159.268134 259.411625 
L 176.355215 259.439007 
L 193.442297 259.344523 
L 210.529378 257.39798 
L 227.616459 254.766736 
L 244.703541 252.08849 
L 261.790622 249.654107 
L 278.877703 247.033922 
L 295.964785 244.514424 
L 313.051866 242.427734 
L 330.138947 240.229248 
L 347.226029 237.312363 
L 364.31311 234.848575 
L 381.400191 232.392596 
L 398.487273 230.012403 
L 398.487273 209.590977 
L 398.487273 209.590977 
L 381.400191 211.971171 
L 364.31311 214.427149 
L 347.226029 216.890937 
L 330.138947 219.807822 
L 313.051866 222.006308 
L 295.964785 224.092998 
L 278.877703 226.612496 
L 261.790622 229.232681 
L 244.703541 231.667064 
L 227.616459 234.34531 
L 210.529378 236.976554 
L 193.442297 238.923097 
L 176.355215 239.017581 
L 159.268134 238.990199 
L 142.181053 238.945872 
L 125.093971 239.071621 
L 108.00689 239.030215 
L 90.919809 239.102842 
L 73.832727 238.999246 
z
" clip-path="url(#pe9ccaad5ec)" style="fill: #7f7f7f; fill-opacity: 0.2"/>
   </g>
   <g id="FillBetweenPolyCollection_9">
    <path d="M 73.832727 240.811746 
L 73.832727 257.355355 
L 90.919809 257.368382 
L 108.00689 257.371603 
L 125.093971 257.388972 
L 142.181053 257.315377 
L 159.268134 257.476011 
L 176.355215 257.509538 
L 193.442297 257.465245 
L 210.529378 257.353507 
L 227.616459 255.632806 
L 244.703541 253.028959 
L 261.790622 251.230145 
L 278.877703 248.918538 
L 295.964785 246.463769 
L 313.051866 244.43294 
L 330.138947 241.67898 
L 347.226029 239.931399 
L 364.31311 237.928883 
L 381.400191 236.012926 
L 398.487273 233.332036 
L 398.487273 216.788427 
L 398.487273 216.788427 
L 381.400191 219.469317 
L 364.31311 221.385273 
L 347.226029 223.387789 
L 330.138947 225.135371 
L 313.051866 227.889331 
L 295.964785 229.920159 
L 278.877703 232.374929 
L 261.790622 234.686536 
L 244.703541 236.48535 
L 227.616459 239.089197 
L 210.529378 240.809898 
L 193.442297 240.921636 
L 176.355215 240.965929 
L 159.268134 240.932402 
L 142.181053 240.771768 
L 125.093971 240.845363 
L 108.00689 240.827994 
L 90.919809 240.824773 
L 73.832727 240.811746 
z
" clip-path="url(#pe9ccaad5ec)" style="fill: #bcbd22; fill-opacity: 0.2"/>
   </g>
   <g id="FillBetweenPolyCollection_10">
    <path d="M 73.832727 242.486011 
L 73.832727 255.835238 
L 90.919809 255.765135 
L 108.00689 255.95965 
L 125.093971 255.923082 
L 142.181053 255.827921 
L 159.268134 255.992415 
L 176.355215 255.775563 
L 193.442297 255.783593 
L 210.529378 255.757793 
L 227.616459 255.862722 
L 244.703541 254.124089 
L 261.790622 251.969819 
L 278.877703 250.017338 
L 295.964785 248.050665 
L 313.051866 246.046195 
L 330.138947 244.133516 
L 347.226029 242.118433 
L 364.31311 240.220887 
L 381.400191 238.34487 
L 398.487273 236.380921 
L 398.487273 223.031694 
L 398.487273 223.031694 
L 381.400191 224.995643 
L 364.31311 226.87166 
L 347.226029 228.769206 
L 330.138947 230.784289 
L 313.051866 232.696968 
L 295.964785 234.701438 
L 278.877703 236.668111 
L 261.790622 238.620592 
L 244.703541 240.774862 
L 227.616459 242.513495 
L 210.529378 242.408566 
L 193.442297 242.434365 
L 176.355215 242.426335 
L 159.268134 242.643188 
L 142.181053 242.478693 
L 125.093971 242.573854 
L 108.00689 242.610423 
L 90.919809 242.415908 
L 73.832727 242.486011 
z
" clip-path="url(#pe9ccaad5ec)" style="fill: #17becf; fill-opacity: 0.2"/>
   </g>
   <g id="matplotlib.axis_1">
    <g id="xtick_1">
     <g id="line2d_1">
      <defs>
       <path id="me5d6e681b7" d="M 0 0 
L 0 3.5 
" style="stroke: #000000; stroke-width: 0.8"/>
      </defs>
      <g>
       <use xlink:href="#me5d6e681b7" x="125.093971" y="307.584" style="stroke: #000000; stroke-width: 0.8"/>
      </g>
     </g>
     <g id="text_1">
      <!-- 2000 -->
      <g transform="translate(112.368971 322.182437) scale(0.1 -0.1)">
       <defs>
        <path id="DejaVuSans-32" d="M 1228 531 
L 3431 531 
L 3431 0 
L 469 0 
L 469 531 
Q 828 903 1448 1529 
Q 2069 2156 2228 2338 
Q 2531 2678 2651 2914 
Q 2772 3150 2772 3378 
Q 2772 3750 2511 3984 
Q 2250 4219 1831 4219 
Q 1534 4219 1204 4116 
Q 875 4013 500 3803 
L 500 4441 
Q 881 4594 1212 4672 
Q 1544 4750 1819 4750 
Q 2544 4750 2975 4387 
Q 3406 4025 3406 3419 
Q 3406 3131 3298 2873 
Q 3191 2616 2906 2266 
Q 2828 2175 2409 1742 
Q 1991 1309 1228 531 
z
" transform="scale(0.015625)"/>
        <path id="DejaVuSans-30" d="M 2034 4250 
Q 1547 4250 1301 3770 
Q 1056 3291 1056 2328 
Q 1056 1369 1301 889 
Q 1547 409 2034 409 
Q 2525 409 2770 889 
Q 3016 1369 3016 2328 
Q 3016 3291 2770 3770 
Q 2525 4250 2034 4250 
z
M 2034 4750 
Q 2819 4750 3233 4129 
Q 3647 3509 3647 2328 
Q 3647 1150 3233 529 
Q 2819 -91 2034 -91 
Q 1250 -91 836 529 
Q 422 1150 422 2328 
Q 422 3509 836 4129 
Q 1250 4750 2034 4750 
z
" transform="scale(0.015625)"/>
       </defs>
       <use xlink:href="#DejaVuSans-32"/>
       <use xlink:href="#DejaVuSans-30" transform="translate(63.623047 0)"/>
       <use xlink:href="#DejaVuSans-30" transform="translate(127.246094 0)"/>
       <use xlink:href="#DejaVuSans-30" transform="translate(190.869141 0)"/>
      </g>
     </g>
    </g>
    <g id="xtick_2">
     <g id="line2d_2">
      <g>
       <use xlink:href="#me5d6e681b7" x="193.442297" y="307.584" style="stroke: #000000; stroke-width: 0.8"/>
      </g>
     </g>
     <g id="text_2">
      <!-- 4000 -->
      <g transform="translate(180.717297 322.182437) scale(0.1 -0.1)">
       <defs>
        <path id="DejaVuSans-34" d="M 2419 4116 
L 825 1625 
L 2419 1625 
L 2419 4116 
z
M 2253 4666 
L 3047 4666 
L 3047 1625 
L 3713 1625 
L 3713 1100 
L 3047 1100 
L 3047 0 
L 2419 0 
L 2419 1100 
L 313 1100 
L 313 1709 
L 2253 4666 
z
" transform="scale(0.015625)"/>
       </defs>
       <use xlink:href="#DejaVuSans-34"/>
       <use xlink:href="#DejaVuSans-30" transform="translate(63.623047 0)"/>
       <use xlink:href="#DejaVuSans-30" transform="translate(127.246094 0)"/>
       <use xlink:href="#DejaVuSans-30" transform="translate(190.869141 0)"/>
      </g>
     </g>
    </g>
    <g id="xtick_3">
     <g id="line2d_3">
      <g>
       <use xlink:href="#me5d6e681b7" x="261.790622" y="307.584" style="stroke: #000000; stroke-width: 0.8"/>
      </g>
     </g>
     <g id="text_3">
      <!-- 6000 -->
      <g transform="translate(249.065622 322.182437) scale(0.1 -0.1)">
       <defs>
        <path id="DejaVuSans-36" d="M 2113 2584 
Q 1688 2584 1439 2293 
Q 1191 2003 1191 1497 
Q 1191 994 1439 701 
Q 1688 409 2113 409 
Q 2538 409 2786 701 
Q 3034 994 3034 1497 
Q 3034 2003 2786 2293 
Q 2538 2584 2113 2584 
z
M 3366 4563 
L 3366 3988 
Q 3128 4100 2886 4159 
Q 2644 4219 2406 4219 
Q 1781 4219 1451 3797 
Q 1122 3375 1075 2522 
Q 1259 2794 1537 2939 
Q 1816 3084 2150 3084 
Q 2853 3084 3261 2657 
Q 3669 2231 3669 1497 
Q 3669 778 3244 343 
Q 2819 -91 2113 -91 
Q 1303 -91 875 529 
Q 447 1150 447 2328 
Q 447 3434 972 4092 
Q 1497 4750 2381 4750 
Q 2619 4750 2861 4703 
Q 3103 4656 3366 4563 
z
" transform="scale(0.015625)"/>
       </defs>
       <use xlink:href="#DejaVuSans-36"/>
       <use xlink:href="#DejaVuSans-30" transform="translate(63.623047 0)"/>
       <use xlink:href="#DejaVuSans-30" transform="translate(127.246094 0)"/>
       <use xlink:href="#DejaVuSans-30" transform="translate(190.869141 0)"/>
      </g>
     </g>
    </g>
    <g id="xtick_4">
     <g id="line2d_4">
      <g>
       <use xlink:href="#me5d6e681b7" x="330.138947" y="307.584" style="stroke: #000000; stroke-width: 0.8"/>
      </g>
     </g>
     <g id="text_4">
      <!-- 8000 -->
      <g transform="translate(317.413947 322.182437) scale(0.1 -0.1)">
       <defs>
        <path id="DejaVuSans-38" d="M 2034 2216 
Q 1584 2216 1326 1975 
Q 1069 1734 1069 1313 
Q 1069 891 1326 650 
Q 1584 409 2034 409 
Q 2484 409 2743 651 
Q 3003 894 3003 1313 
Q 3003 1734 2745 1975 
Q 2488 2216 2034 2216 
z
M 1403 2484 
Q 997 2584 770 2862 
Q 544 3141 544 3541 
Q 544 4100 942 4425 
Q 1341 4750 2034 4750 
Q 2731 4750 3128 4425 
Q 3525 4100 3525 3541 
Q 3525 3141 3298 2862 
Q 3072 2584 2669 2484 
Q 3125 2378 3379 2068 
Q 3634 1759 3634 1313 
Q 3634 634 3220 271 
Q 2806 -91 2034 -91 
Q 1263 -91 848 271 
Q 434 634 434 1313 
Q 434 1759 690 2068 
Q 947 2378 1403 2484 
z
M 1172 3481 
Q 1172 3119 1398 2916 
Q 1625 2713 2034 2713 
Q 2441 2713 2670 2916 
Q 2900 3119 2900 3481 
Q 2900 3844 2670 4047 
Q 2441 4250 2034 4250 
Q 1625 4250 1398 4047 
Q 1172 3844 1172 3481 
z
" transform="scale(0.015625)"/>
       </defs>
       <use xlink:href="#DejaVuSans-38"/>
       <use xlink:href="#DejaVuSans-30" transform="translate(63.623047 0)"/>
       <use xlink:href="#DejaVuSans-30" transform="translate(127.246094 0)"/>
       <use xlink:href="#DejaVuSans-30" transform="translate(190.869141 0)"/>
      </g>
     </g>
    </g>
    <g id="xtick_5">
     <g id="line2d_5">
      <g>
       <use xlink:href="#me5d6e681b7" x="398.487273" y="307.584" style="stroke: #000000; stroke-width: 0.8"/>
      </g>
     </g>
     <g id="text_5">
      <!-- 10000 -->
      <g transform="translate(382.581023 322.182437) scale(0.1 -0.1)">
       <defs>
        <path id="DejaVuSans-31" d="M 794 531 
L 1825 531 
L 1825 4091 
L 703 3866 
L 703 4441 
L 1819 4666 
L 2450 4666 
L 2450 531 
L 3481 531 
L 3481 0 
L 794 0 
L 794 531 
z
" transform="scale(0.015625)"/>
       </defs>
       <use xlink:href="#DejaVuSans-31"/>
       <use xlink:href="#DejaVuSans-30" transform="translate(63.623047 0)"/>
       <use xlink:href="#DejaVuSans-30" transform="translate(127.246094 0)"/>
       <use xlink:href="#DejaVuSans-30" transform="translate(190.869141 0)"/>
       <use xlink:href="#DejaVuSans-30" transform="translate(254.492188 0)"/>
      </g>
     </g>
    </g>
    <g id="text_6">
     <!-- Number of samples -->
     <g transform="translate(187.292812 335.860562) scale(0.1 -0.1)">
      <defs>
       <path id="DejaVuSans-4e" d="M 628 4666 
L 1478 4666 
L 3547 763 
L 3547 4666 
L 4159 4666 
L 4159 0 
L 3309 0 
L 1241 3903 
L 1241 0 
L 628 0 
L 628 4666 
z
" transform="scale(0.015625)"/>
       <path id="DejaVuSans-75" d="M 544 1381 
L 544 3500 
L 1119 3500 
L 1119 1403 
Q 1119 906 1312 657 
Q 1506 409 1894 409 
Q 2359 409 2629 706 
Q 2900 1003 2900 1516 
L 2900 3500 
L 3475 3500 
L 3475 0 
L 2900 0 
L 2900 538 
Q 2691 219 2414 64 
Q 2138 -91 1772 -91 
Q 1169 -91 856 284 
Q 544 659 544 1381 
z
M 1991 3584 
L 1991 3584 
z
" transform="scale(0.015625)"/>
       <path id="DejaVuSans-6d" d="M 3328 2828 
Q 3544 3216 3844 3400 
Q 4144 3584 4550 3584 
Q 5097 3584 5394 3201 
Q 5691 2819 5691 2113 
L 5691 0 
L 5113 0 
L 5113 2094 
Q 5113 2597 4934 2840 
Q 4756 3084 4391 3084 
Q 3944 3084 3684 2787 
Q 3425 2491 3425 1978 
L 3425 0 
L 2847 0 
L 2847 2094 
Q 2847 2600 2669 2842 
Q 2491 3084 2119 3084 
Q 1678 3084 1418 2786 
Q 1159 2488 1159 1978 
L 1159 0 
L 581 0 
L 581 3500 
L 1159 3500 
L 1159 2956 
Q 1356 3278 1631 3431 
Q 1906 3584 2284 3584 
Q 2666 3584 2933 3390 
Q 3200 3197 3328 2828 
z
" transform="scale(0.015625)"/>
       <path id="DejaVuSans-62" d="M 3116 1747 
Q 3116 2381 2855 2742 
Q 2594 3103 2138 3103 
Q 1681 3103 1420 2742 
Q 1159 2381 1159 1747 
Q 1159 1113 1420 752 
Q 1681 391 2138 391 
Q 2594 391 2855 752 
Q 3116 1113 3116 1747 
z
M 1159 2969 
Q 1341 3281 1617 3432 
Q 1894 3584 2278 3584 
Q 2916 3584 3314 3078 
Q 3713 2572 3713 1747 
Q 3713 922 3314 415 
Q 2916 -91 2278 -91 
Q 1894 -91 1617 61 
Q 1341 213 1159 525 
L 1159 0 
L 581 0 
L 581 4863 
L 1159 4863 
L 1159 2969 
z
" transform="scale(0.015625)"/>
       <path id="DejaVuSans-65" d="M 3597 1894 
L 3597 1613 
L 953 1613 
Q 991 1019 1311 708 
Q 1631 397 2203 397 
Q 2534 397 2845 478 
Q 3156 559 3463 722 
L 3463 178 
Q 3153 47 2828 -22 
Q 2503 -91 2169 -91 
Q 1331 -91 842 396 
Q 353 884 353 1716 
Q 353 2575 817 3079 
Q 1281 3584 2069 3584 
Q 2775 3584 3186 3129 
Q 3597 2675 3597 1894 
z
M 3022 2063 
Q 3016 2534 2758 2815 
Q 2500 3097 2075 3097 
Q 1594 3097 1305 2825 
Q 1016 2553 972 2059 
L 3022 2063 
z
" transform="scale(0.015625)"/>
       <path id="DejaVuSans-72" d="M 2631 2963 
Q 2534 3019 2420 3045 
Q 2306 3072 2169 3072 
Q 1681 3072 1420 2755 
Q 1159 2438 1159 1844 
L 1159 0 
L 581 0 
L 581 3500 
L 1159 3500 
L 1159 2956 
Q 1341 3275 1631 3429 
Q 1922 3584 2338 3584 
Q 2397 3584 2469 3576 
Q 2541 3569 2628 3553 
L 2631 2963 
z
" transform="scale(0.015625)"/>
       <path id="DejaVuSans-20" transform="scale(0.015625)"/>
       <path id="DejaVuSans-6f" d="M 1959 3097 
Q 1497 3097 1228 2736 
Q 959 2375 959 1747 
Q 959 1119 1226 758 
Q 1494 397 1959 397 
Q 2419 397 2687 759 
Q 2956 1122 2956 1747 
Q 2956 2369 2687 2733 
Q 2419 3097 1959 3097 
z
M 1959 3584 
Q 2709 3584 3137 3096 
Q 3566 2609 3566 1747 
Q 3566 888 3137 398 
Q 2709 -91 1959 -91 
Q 1206 -91 779 398 
Q 353 888 353 1747 
Q 353 2609 779 3096 
Q 1206 3584 1959 3584 
z
" transform="scale(0.015625)"/>
       <path id="DejaVuSans-66" d="M 2375 4863 
L 2375 4384 
L 1825 4384 
Q 1516 4384 1395 4259 
Q 1275 4134 1275 3809 
L 1275 3500 
L 2222 3500 
L 2222 3053 
L 1275 3053 
L 1275 0 
L 697 0 
L 697 3053 
L 147 3053 
L 147 3500 
L 697 3500 
L 697 3744 
Q 697 4328 969 4595 
Q 1241 4863 1831 4863 
L 2375 4863 
z
" transform="scale(0.015625)"/>
       <path id="DejaVuSans-73" d="M 2834 3397 
L 2834 2853 
Q 2591 2978 2328 3040 
Q 2066 3103 1784 3103 
Q 1356 3103 1142 2972 
Q 928 2841 928 2578 
Q 928 2378 1081 2264 
Q 1234 2150 1697 2047 
L 1894 2003 
Q 2506 1872 2764 1633 
Q 3022 1394 3022 966 
Q 3022 478 2636 193 
Q 2250 -91 1575 -91 
Q 1294 -91 989 -36 
Q 684 19 347 128 
L 347 722 
Q 666 556 975 473 
Q 1284 391 1588 391 
Q 1994 391 2212 530 
Q 2431 669 2431 922 
Q 2431 1156 2273 1281 
Q 2116 1406 1581 1522 
L 1381 1569 
Q 847 1681 609 1914 
Q 372 2147 372 2553 
Q 372 3047 722 3315 
Q 1072 3584 1716 3584 
Q 2034 3584 2315 3537 
Q 2597 3491 2834 3397 
z
" transform="scale(0.015625)"/>
       <path id="DejaVuSans-61" d="M 2194 1759 
Q 1497 1759 1228 1600 
Q 959 1441 959 1056 
Q 959 750 1161 570 
Q 1363 391 1709 391 
Q 2188 391 2477 730 
Q 2766 1069 2766 1631 
L 2766 1759 
L 2194 1759 
z
M 3341 1997 
L 3341 0 
L 2766 0 
L 2766 531 
Q 2569 213 2275 61 
Q 1981 -91 1556 -91 
Q 1019 -91 701 211 
Q 384 513 384 1019 
Q 384 1609 779 1909 
Q 1175 2209 1959 2209 
L 2766 2209 
L 2766 2266 
Q 2766 2663 2505 2880 
Q 2244 3097 1772 3097 
Q 1472 3097 1187 3025 
Q 903 2953 641 2809 
L 641 3341 
Q 956 3463 1253 3523 
Q 1550 3584 1831 3584 
Q 2591 3584 2966 3190 
Q 3341 2797 3341 1997 
z
" transform="scale(0.015625)"/>
       <path id="DejaVuSans-70" d="M 1159 525 
L 1159 -1331 
L 581 -1331 
L 581 3500 
L 1159 3500 
L 1159 2969 
Q 1341 3281 1617 3432 
Q 1894 3584 2278 3584 
Q 2916 3584 3314 3078 
Q 3713 2572 3713 1747 
Q 3713 922 3314 415 
Q 2916 -91 2278 -91 
Q 1894 -91 1617 61 
Q 1341 213 1159 525 
z
M 3116 1747 
Q 3116 2381 2855 2742 
Q 2594 3103 2138 3103 
Q 1681 3103 1420 2742 
Q 1159 2381 1159 1747 
Q 1159 1113 1420 752 
Q 1681 391 2138 391 
Q 2594 391 2855 752 
Q 3116 1113 3116 1747 
z
" transform="scale(0.015625)"/>
       <path id="DejaVuSans-6c" d="M 603 4863 
L 1178 4863 
L 1178 0 
L 603 0 
L 603 4863 
z
" transform="scale(0.015625)"/>
      </defs>
      <use xlink:href="#DejaVuSans-4e"/>
      <use xlink:href="#DejaVuSans-75" transform="translate(74.804688 0)"/>
      <use xlink:href="#DejaVuSans-6d" transform="translate(138.183594 0)"/>
      <use xlink:href="#DejaVuSans-62" transform="translate(235.595703 0)"/>
      <use xlink:href="#DejaVuSans-65" transform="translate(299.072266 0)"/>
      <use xlink:href="#DejaVuSans-72" transform="translate(360.595703 0)"/>
      <use xlink:href="#DejaVuSans-20" transform="translate(401.708984 0)"/>
      <use xlink:href="#DejaVuSans-6f" transform="translate(433.496094 0)"/>
      <use xlink:href="#DejaVuSans-66" transform="translate(494.677734 0)"/>
      <use xlink:href="#DejaVuSans-20" transform="translate(529.882812 0)"/>
      <use xlink:href="#DejaVuSans-73" transform="translate(561.669922 0)"/>
      <use xlink:href="#DejaVuSans-61" transform="translate(613.769531 0)"/>
      <use xlink:href="#DejaVuSans-6d" transform="translate(675.048828 0)"/>
      <use xlink:href="#DejaVuSans-70" transform="translate(772.460938 0)"/>
      <use xlink:href="#DejaVuSans-6c" transform="translate(835.9375 0)"/>
      <use xlink:href="#DejaVuSans-65" transform="translate(863.720703 0)"/>
      <use xlink:href="#DejaVuSans-73" transform="translate(925.244141 0)"/>
     </g>
    </g>
   </g>
   <g id="matplotlib.axis_2">
    <g id="ytick_1">
     <g id="line2d_6">
      <defs>
       <path id="m762ba5a5d6" d="M 0 0 
L -3.5 0 
" style="stroke: #000000; stroke-width: 0.8"/>
      </defs>
      <g>
       <use xlink:href="#m762ba5a5d6" x="57.6" y="269.486235" style="stroke: #000000; stroke-width: 0.8"/>
      </g>
     </g>
     <g id="text_7">
      <!-- 0 -->
      <g transform="translate(44.2375 273.285454) scale(0.1 -0.1)">
       <use xlink:href="#DejaVuSans-30"/>
      </g>
     </g>
    </g>
    <g id="ytick_2">
     <g id="line2d_7">
      <g>
       <use xlink:href="#m762ba5a5d6" x="57.6" y="228.857329" style="stroke: #000000; stroke-width: 0.8"/>
      </g>
     </g>
     <g id="text_8">
      <!-- 2 -->
      <g transform="translate(44.2375 232.656548) scale(0.1 -0.1)">
       <use xlink:href="#DejaVuSans-32"/>
      </g>
     </g>
    </g>
    <g id="ytick_3">
     <g id="line2d_8">
      <g>
       <use xlink:href="#m762ba5a5d6" x="57.6" y="188.228423" style="stroke: #000000; stroke-width: 0.8"/>
      </g>
     </g>
     <g id="text_9">
      <!-- 4 -->
      <g transform="translate(44.2375 192.027642) scale(0.1 -0.1)">
       <use xlink:href="#DejaVuSans-34"/>
      </g>
     </g>
    </g>
    <g id="ytick_4">
     <g id="line2d_9">
      <g>
       <use xlink:href="#m762ba5a5d6" x="57.6" y="147.599517" style="stroke: #000000; stroke-width: 0.8"/>
      </g>
     </g>
     <g id="text_10">
      <!-- 6 -->
      <g transform="translate(44.2375 151.398736) scale(0.1 -0.1)">
       <use xlink:href="#DejaVuSans-36"/>
      </g>
     </g>
    </g>
    <g id="ytick_5">
     <g id="line2d_10">
      <g>
       <use xlink:href="#m762ba5a5d6" x="57.6" y="106.970611" style="stroke: #000000; stroke-width: 0.8"/>
      </g>
     </g>
     <g id="text_11">
      <!-- 8 -->
      <g transform="translate(44.2375 110.76983) scale(0.1 -0.1)">
       <use xlink:href="#DejaVuSans-38"/>
      </g>
     </g>
    </g>
    <g id="ytick_6">
     <g id="line2d_11">
      <g>
       <use xlink:href="#m762ba5a5d6" x="57.6" y="66.341705" style="stroke: #000000; stroke-width: 0.8"/>
      </g>
     </g>
     <g id="text_12">
      <!-- 10 -->
      <g transform="translate(37.875 70.140924) scale(0.1 -0.1)">
       <use xlink:href="#DejaVuSans-31"/>
       <use xlink:href="#DejaVuSans-30" transform="translate(63.623047 0)"/>
      </g>
     </g>
    </g>
    <g id="text_13">
     <!-- Speedup -->
     <g transform="translate(31.795312 196.54675) rotate(-90) scale(0.1 -0.1)">
      <defs>
       <path id="DejaVuSans-53" d="M 3425 4513 
L 3425 3897 
Q 3066 4069 2747 4153 
Q 2428 4238 2131 4238 
Q 1616 4238 1336 4038 
Q 1056 3838 1056 3469 
Q 1056 3159 1242 3001 
Q 1428 2844 1947 2747 
L 2328 2669 
Q 3034 2534 3370 2195 
Q 3706 1856 3706 1288 
Q 3706 609 3251 259 
Q 2797 -91 1919 -91 
Q 1588 -91 1214 -16 
Q 841 59 441 206 
L 441 856 
Q 825 641 1194 531 
Q 1563 422 1919 422 
Q 2459 422 2753 634 
Q 3047 847 3047 1241 
Q 3047 1584 2836 1778 
Q 2625 1972 2144 2069 
L 1759 2144 
Q 1053 2284 737 2584 
Q 422 2884 422 3419 
Q 422 4038 858 4394 
Q 1294 4750 2059 4750 
Q 2388 4750 2728 4690 
Q 3069 4631 3425 4513 
z
" transform="scale(0.015625)"/>
       <path id="DejaVuSans-64" d="M 2906 2969 
L 2906 4863 
L 3481 4863 
L 3481 0 
L 2906 0 
L 2906 525 
Q 2725 213 2448 61 
Q 2172 -91 1784 -91 
Q 1150 -91 751 415 
Q 353 922 353 1747 
Q 353 2572 751 3078 
Q 1150 3584 1784 3584 
Q 2172 3584 2448 3432 
Q 2725 3281 2906 2969 
z
M 947 1747 
Q 947 1113 1208 752 
Q 1469 391 1925 391 
Q 2381 391 2643 752 
Q 2906 1113 2906 1747 
Q 2906 2381 2643 2742 
Q 2381 3103 1925 3103 
Q 1469 3103 1208 2742 
Q 947 2381 947 1747 
z
" transform="scale(0.015625)"/>
      </defs>
      <use xlink:href="#DejaVuSans-53"/>
      <use xlink:href="#DejaVuSans-70" transform="translate(63.476562 0)"/>
      <use xlink:href="#DejaVuSans-65" transform="translate(126.953125 0)"/>
      <use xlink:href="#DejaVuSans-65" transform="translate(188.476562 0)"/>
      <use xlink:href="#DejaVuSans-64" transform="translate(250 0)"/>
      <use xlink:href="#DejaVuSans-75" transform="translate(313.476562 0)"/>
      <use xlink:href="#DejaVuSans-70" transform="translate(376.855469 0)"/>
     </g>
    </g>
   </g>
   <g id="line2d_12">
    <path d="M 73.832727 249.012207 
L 90.919809 229.569008 
L 108.00689 210.517351 
L 125.093971 191.113484 
L 142.181053 173.602041 
L 159.268134 153.259934 
L 176.355215 136.635709 
L 193.442297 120.196956 
L 210.529378 98.619195 
L 227.616459 172.243756 
L 244.703541 163.597954 
L 261.790622 155.213275 
L 278.877703 146.884943 
L 295.964785 136.116488 
L 313.051866 127.299208 
L 330.138947 118.611183 
L 347.226029 111.391923 
L 364.31311 98.481943 
L 381.400191 146.348738 
L 398.487273 139.896428 
" clip-path="url(#pe9ccaad5ec)" style="fill: none; stroke: #1f77b4; stroke-width: 1.5; stroke-linecap: square"/>
   </g>
   <g id="line2d_13">
    <path d="M 73.832727 249.237136 
L 90.919809 249.153133 
L 108.00689 239.590671 
L 125.093971 229.92101 
L 142.181053 220.16818 
L 159.268134 210.231861 
L 176.355215 201.259707 
L 193.442297 191.152284 
L 210.529378 182.167099 
L 227.616459 172.341579 
L 244.703541 162.093124 
L 261.790622 153.141692 
L 278.877703 142.704787 
L 295.964785 134.131534 
L 313.051866 125.643 
L 330.138947 115.060274 
L 347.226029 107.456447 
L 364.31311 99.818864 
L 381.400191 148.862394 
L 398.487273 171.534071 
" clip-path="url(#pe9ccaad5ec)" style="fill: none; stroke: #ff7f0e; stroke-width: 1.5; stroke-linecap: square"/>
   </g>
   <g id="line2d_14">
    <path d="M 73.832727 249.064287 
L 90.919809 248.883854 
L 108.00689 249.000092 
L 125.093971 242.597057 
L 142.181053 236.25123 
L 159.268134 229.620384 
L 176.355215 223.368122 
L 193.442297 216.631035 
L 210.529378 211.113183 
L 227.616459 203.95262 
L 244.703541 197.73686 
L 261.790622 191.476569 
L 278.877703 185.536735 
L 295.964785 178.301341 
L 313.051866 171.570083 
L 330.138947 166.619645 
L 347.226029 161.038711 
L 364.31311 154.720848 
L 381.400191 148.053336 
L 398.487273 139.412817 
" clip-path="url(#pe9ccaad5ec)" style="fill: none; stroke: #2ca02c; stroke-width: 1.5; stroke-linecap: square"/>
   </g>
   <g id="line2d_15">
    <path d="M 73.832727 249.206936 
L 90.919809 248.872964 
L 108.00689 249.314848 
L 125.093971 249.239038 
L 142.181053 244.430274 
L 159.268134 239.290319 
L 176.355215 234.36244 
L 193.442297 229.974535 
L 210.529378 224.929015 
L 227.616459 220.140898 
L 244.703541 214.730471 
L 261.790622 210.999619 
L 278.877703 205.425933 
L 295.964785 200.990078 
L 313.051866 195.86658 
L 330.138947 190.962412 
L 347.226029 186.674441 
L 364.31311 181.700714 
L 381.400191 176.502265 
L 398.487273 170.905376 
" clip-path="url(#pe9ccaad5ec)" style="fill: none; stroke: #d62728; stroke-width: 1.5; stroke-linecap: square"/>
   </g>
   <g id="line2d_16">
    <path d="M 73.832727 249.125057 
L 90.919809 249.034671 
L 108.00689 249.126033 
L 125.093971 249.16264 
L 142.181053 249.227245 
L 159.268134 245.445606 
L 176.355215 241.381386 
L 193.442297 237.42723 
L 210.529378 233.586426 
L 227.616459 229.432236 
L 244.703541 225.737909 
L 261.790622 221.878268 
L 278.877703 217.95017 
L 295.964785 214.335722 
L 313.051866 210.418004 
L 330.138947 206.43273 
L 347.226029 202.649412 
L 364.31311 198.772834 
L 381.400191 194.406671 
L 398.487273 190.420305 
" clip-path="url(#pe9ccaad5ec)" style="fill: none; stroke: #9467bd; stroke-width: 1.5; stroke-linecap: square"/>
   </g>
   <g id="line2d_17">
    <path d="M 73.832727 249.203206 
L 90.919809 249.190513 
L 108.00689 249.138246 
L 125.093971 249.097201 
L 142.181053 249.276688 
L 159.268134 249.337293 
L 176.355215 246.150157 
L 193.442297 242.683959 
L 210.529378 239.643836 
L 227.616459 235.97581 
L 244.703541 233.075602 
L 261.790622 229.601901 
L 278.877703 226.519553 
L 295.964785 223.551876 
L 313.051866 219.847343 
L 330.138947 216.298595 
L 347.226029 213.606131 
L 364.31311 210.082732 
L 381.400191 206.382056 
L 398.487273 203.558763 
" clip-path="url(#pe9ccaad5ec)" style="fill: none; stroke: #8c564b; stroke-width: 1.5; stroke-linecap: square"/>
   </g>
   <g id="line2d_18">
    <path d="M 73.832727 249.07524 
L 90.919809 249.128993 
L 108.00689 249.116069 
L 125.093971 249.211063 
L 142.181053 249.103763 
L 159.268134 249.13549 
L 176.355215 249.0805 
L 193.442297 246.647059 
L 210.529378 243.634415 
L 227.616459 240.776933 
L 244.703541 238.088053 
L 261.790622 234.715391 
L 278.877703 232.333344 
L 295.964785 229.670769 
L 313.051866 227.055694 
L 330.138947 224.377886 
L 347.226029 221.302658 
L 364.31311 218.493658 
L 381.400191 215.832205 
L 398.487273 212.991569 
" clip-path="url(#pe9ccaad5ec)" style="fill: none; stroke: #e377c2; stroke-width: 1.5; stroke-linecap: square"/>
   </g>
   <g id="line2d_19">
    <path d="M 73.832727 249.209959 
L 90.919809 249.313555 
L 108.00689 249.240928 
L 125.093971 249.282334 
L 142.181053 249.156585 
L 159.268134 249.200912 
L 176.355215 249.228294 
L 193.442297 249.13381 
L 210.529378 247.187267 
L 227.616459 244.556023 
L 244.703541 241.877777 
L 261.790622 239.443394 
L 278.877703 236.823209 
L 295.964785 234.303711 
L 313.051866 232.217021 
L 330.138947 230.018535 
L 347.226029 227.10165 
L 364.31311 224.637862 
L 381.400191 222.181883 
L 398.487273 219.80169 
" clip-path="url(#pe9ccaad5ec)" style="fill: none; stroke: #7f7f7f; stroke-width: 1.5; stroke-linecap: square"/>
   </g>
   <g id="line2d_20">
    <path d="M 73.832727 249.083551 
L 90.919809 249.096577 
L 108.00689 249.099799 
L 125.093971 249.117168 
L 142.181053 249.043572 
L 159.268134 249.204206 
L 176.355215 249.237734 
L 193.442297 249.19344 
L 210.529378 249.081702 
L 227.616459 247.361001 
L 244.703541 244.757154 
L 261.790622 242.95834 
L 278.877703 240.646734 
L 295.964785 238.191964 
L 313.051866 236.161136 
L 330.138947 233.407176 
L 347.226029 231.659594 
L 364.31311 229.657078 
L 381.400191 227.741121 
L 398.487273 225.060231 
" clip-path="url(#pe9ccaad5ec)" style="fill: none; stroke: #bcbd22; stroke-width: 1.5; stroke-linecap: square"/>
   </g>
   <g id="line2d_21">
    <path d="M 73.832727 249.160625 
L 90.919809 249.090522 
L 108.00689 249.285036 
L 125.093971 249.248468 
L 142.181053 249.153307 
L 159.268134 249.317802 
L 176.355215 249.100949 
L 193.442297 249.108979 
L 210.529378 249.08318 
L 227.616459 249.188108 
L 244.703541 247.449475 
L 261.790622 245.295205 
L 278.877703 243.342725 
L 295.964785 241.376051 
L 313.051866 239.371581 
L 330.138947 237.458902 
L 347.226029 235.443819 
L 364.31311 233.546273 
L 381.400191 231.670256 
L 398.487273 229.706308 
" clip-path="url(#pe9ccaad5ec)" style="fill: none; stroke: #17becf; stroke-width: 1.5; stroke-linecap: square"/>
   </g>
   <g id="patch_3">
    <path d="M 57.6 307.584 
L 57.6 41.472 
" style="fill: none; stroke: #000000; stroke-width: 0.8; stroke-linejoin: miter; stroke-linecap: square"/>
   </g>
   <g id="patch_4">
    <path d="M 414.72 307.584 
L 414.72 41.472 
" style="fill: none; stroke: #000000; stroke-width: 0.8; stroke-linejoin: miter; stroke-linecap: square"/>
   </g>
   <g id="patch_5">
    <path d="M 57.6 307.584 
L 414.72 307.584 
" style="fill: none; stroke: #000000; stroke-width: 0.8; stroke-linejoin: miter; stroke-linecap: square"/>
   </g>
   <g id="patch_6">
    <path d="M 57.6 41.472 
L 414.72 41.472 
" style="fill: none; stroke: #000000; stroke-width: 0.8; stroke-linejoin: miter; stroke-linecap: square"/>
   </g>
   <g id="legend_1">
    <g id="patch_7">
     <path d="M 64.6 196.25325 
L 141.317187 196.25325 
Q 143.317187 196.25325 143.317187 194.25325 
L 143.317187 48.472 
Q 143.317187 46.472 141.317187 46.472 
L 64.6 46.472 
Q 62.6 46.472 62.6 48.472 
L 62.6 194.25325 
Q 62.6 196.25325 64.6 196.25325 
z
" style="fill: #ffffff; opacity: 0.8; stroke: #cccccc; stroke-linejoin: miter"/>
    </g>
    <g id="line2d_22">
     <path d="M 66.6 54.570437 
L 76.6 54.570437 
L 86.6 54.570437 
" style="fill: none; stroke: #1f77b4; stroke-width: 1.5; stroke-linecap: square"/>
    </g>
    <g id="text_14">
     <!-- 500 mp -->
     <g transform="translate(94.6 58.070437) scale(0.1 -0.1)">
      <defs>
       <path id="DejaVuSans-35" d="M 691 4666 
L 3169 4666 
L 3169 4134 
L 1269 4134 
L 1269 2991 
Q 1406 3038 1543 3061 
Q 1681 3084 1819 3084 
Q 2600 3084 3056 2656 
Q 3513 2228 3513 1497 
Q 3513 744 3044 326 
Q 2575 -91 1722 -91 
Q 1428 -91 1123 -41 
Q 819 9 494 109 
L 494 744 
Q 775 591 1075 516 
Q 1375 441 1709 441 
Q 2250 441 2565 725 
Q 2881 1009 2881 1497 
Q 2881 1984 2565 2268 
Q 2250 2553 1709 2553 
Q 1456 2553 1204 2497 
Q 953 2441 691 2322 
L 691 4666 
z
" transform="scale(0.015625)"/>
      </defs>
      <use xlink:href="#DejaVuSans-35"/>
      <use xlink:href="#DejaVuSans-30" transform="translate(63.623047 0)"/>
      <use xlink:href="#DejaVuSans-30" transform="translate(127.246094 0)"/>
      <use xlink:href="#DejaVuSans-20" transform="translate(190.869141 0)"/>
      <use xlink:href="#DejaVuSans-6d" transform="translate(222.65625 0)"/>
      <use xlink:href="#DejaVuSans-70" transform="translate(320.068359 0)"/>
     </g>
    </g>
    <g id="line2d_23">
     <path d="M 66.6 69.248562 
L 76.6 69.248562 
L 86.6 69.248562 
" style="fill: none; stroke: #ff7f0e; stroke-width: 1.5; stroke-linecap: square"/>
    </g>
    <g id="text_15">
     <!-- 1000 mp -->
     <g transform="translate(94.6 72.748562) scale(0.1 -0.1)">
      <use xlink:href="#DejaVuSans-31"/>
      <use xlink:href="#DejaVuSans-30" transform="translate(63.623047 0)"/>
      <use xlink:href="#DejaVuSans-30" transform="translate(127.246094 0)"/>
      <use xlink:href="#DejaVuSans-30" transform="translate(190.869141 0)"/>
      <use xlink:href="#DejaVuSans-20" transform="translate(254.492188 0)"/>
      <use xlink:href="#DejaVuSans-6d" transform="translate(286.279297 0)"/>
      <use xlink:href="#DejaVuSans-70" transform="translate(383.691406 0)"/>
     </g>
    </g>
    <g id="line2d_24">
     <path d="M 66.6 83.926688 
L 76.6 83.926688 
L 86.6 83.926688 
" style="fill: none; stroke: #2ca02c; stroke-width: 1.5; stroke-linecap: square"/>
    </g>
    <g id="text_16">
     <!-- 1500 mp -->
     <g transform="translate(94.6 87.426688) scale(0.1 -0.1)">
      <use xlink:href="#DejaVuSans-31"/>
      <use xlink:href="#DejaVuSans-35" transform="translate(63.623047 0)"/>
      <use xlink:href="#DejaVuSans-30" transform="translate(127.246094 0)"/>
      <use xlink:href="#DejaVuSans-30" transform="translate(190.869141 0)"/>
      <use xlink:href="#DejaVuSans-20" transform="translate(254.492188 0)"/>
      <use xlink:href="#DejaVuSans-6d" transform="translate(286.279297 0)"/>
      <use xlink:href="#DejaVuSans-70" transform="translate(383.691406 0)"/>
     </g>
    </g>
    <g id="line2d_25">
     <path d="M 66.6 98.604812 
L 76.6 98.604812 
L 86.6 98.604812 
" style="fill: none; stroke: #d62728; stroke-width: 1.5; stroke-linecap: square"/>
    </g>
    <g id="text_17">
     <!-- 2000 mp -->
     <g transform="translate(94.6 102.104812) scale(0.1 -0.1)">
      <use xlink:href="#DejaVuSans-32"/>
      <use xlink:href="#DejaVuSans-30" transform="translate(63.623047 0)"/>
      <use xlink:href="#DejaVuSans-30" transform="translate(127.246094 0)"/>
      <use xlink:href="#DejaVuSans-30" transform="translate(190.869141 0)"/>
      <use xlink:href="#DejaVuSans-20" transform="translate(254.492188 0)"/>
      <use xlink:href="#DejaVuSans-6d" transform="translate(286.279297 0)"/>
      <use xlink:href="#DejaVuSans-70" transform="translate(383.691406 0)"/>
     </g>
    </g>
    <g id="line2d_26">
     <path d="M 66.6 113.282938 
L 76.6 113.282938 
L 86.6 113.282938 
" style="fill: none; stroke: #9467bd; stroke-width: 1.5; stroke-linecap: square"/>
    </g>
    <g id="text_18">
     <!-- 2500 mp -->
     <g transform="translate(94.6 116.782938) scale(0.1 -0.1)">
      <use xlink:href="#DejaVuSans-32"/>
      <use xlink:href="#DejaVuSans-35" transform="translate(63.623047 0)"/>
      <use xlink:href="#DejaVuSans-30" transform="translate(127.246094 0)"/>
      <use xlink:href="#DejaVuSans-30" transform="translate(190.869141 0)"/>
      <use xlink:href="#DejaVuSans-20" transform="translate(254.492188 0)"/>
      <use xlink:href="#DejaVuSans-6d" transform="translate(286.279297 0)"/>
      <use xlink:href="#DejaVuSans-70" transform="translate(383.691406 0)"/>
     </g>
    </g>
    <g id="line2d_27">
     <path d="M 66.6 127.961062 
L 76.6 127.961062 
L 86.6 127.961062 
" style="fill: none; stroke: #8c564b; stroke-width: 1.5; stroke-linecap: square"/>
    </g>
    <g id="text_19">
     <!-- 3000 mp -->
     <g transform="translate(94.6 131.461062) scale(0.1 -0.1)">
      <defs>
       <path id="DejaVuSans-33" d="M 2597 2516 
Q 3050 2419 3304 2112 
Q 3559 1806 3559 1356 
Q 3559 666 3084 287 
Q 2609 -91 1734 -91 
Q 1441 -91 1130 -33 
Q 819 25 488 141 
L 488 750 
Q 750 597 1062 519 
Q 1375 441 1716 441 
Q 2309 441 2620 675 
Q 2931 909 2931 1356 
Q 2931 1769 2642 2001 
Q 2353 2234 1838 2234 
L 1294 2234 
L 1294 2753 
L 1863 2753 
Q 2328 2753 2575 2939 
Q 2822 3125 2822 3475 
Q 2822 3834 2567 4026 
Q 2313 4219 1838 4219 
Q 1578 4219 1281 4162 
Q 984 4106 628 3988 
L 628 4550 
Q 988 4650 1302 4700 
Q 1616 4750 1894 4750 
Q 2613 4750 3031 4423 
Q 3450 4097 3450 3541 
Q 3450 3153 3228 2886 
Q 3006 2619 2597 2516 
z
" transform="scale(0.015625)"/>
      </defs>
      <use xlink:href="#DejaVuSans-33"/>
      <use xlink:href="#DejaVuSans-30" transform="translate(63.623047 0)"/>
      <use xlink:href="#DejaVuSans-30" transform="translate(127.246094 0)"/>
      <use xlink:href="#DejaVuSans-30" transform="translate(190.869141 0)"/>
      <use xlink:href="#DejaVuSans-20" transform="translate(254.492188 0)"/>
      <use xlink:href="#DejaVuSans-6d" transform="translate(286.279297 0)"/>
      <use xlink:href="#DejaVuSans-70" transform="translate(383.691406 0)"/>
     </g>
    </g>
    <g id="line2d_28">
     <path d="M 66.6 142.639187 
L 76.6 142.639187 
L 86.6 142.639187 
" style="fill: none; stroke: #e377c2; stroke-width: 1.5; stroke-linecap: square"/>
    </g>
    <g id="text_20">
     <!-- 3500 mp -->
     <g transform="translate(94.6 146.139187) scale(0.1 -0.1)">
      <use xlink:href="#DejaVuSans-33"/>
      <use xlink:href="#DejaVuSans-35" transform="translate(63.623047 0)"/>
      <use xlink:href="#DejaVuSans-30" transform="translate(127.246094 0)"/>
      <use xlink:href="#DejaVuSans-30" transform="translate(190.869141 0)"/>
      <use xlink:href="#DejaVuSans-20" transform="translate(254.492188 0)"/>
      <use xlink:href="#DejaVuSans-6d" transform="translate(286.279297 0)"/>
      <use xlink:href="#DejaVuSans-70" transform="translate(383.691406 0)"/>
     </g>
    </g>
    <g id="line2d_29">
     <path d="M 66.6 157.317312 
L 76.6 157.317312 
L 86.6 157.317312 
" style="fill: none; stroke: #7f7f7f; stroke-width: 1.5; stroke-linecap: square"/>
    </g>
    <g id="text_21">
     <!-- 4000 mp -->
     <g transform="translate(94.6 160.817312) scale(0.1 -0.1)">
      <use xlink:href="#DejaVuSans-34"/>
      <use xlink:href="#DejaVuSans-30" transform="translate(63.623047 0)"/>
      <use xlink:href="#DejaVuSans-30" transform="translate(127.246094 0)"/>
      <use xlink:href="#DejaVuSans-30" transform="translate(190.869141 0)"/>
      <use xlink:href="#DejaVuSans-20" transform="translate(254.492188 0)"/>
      <use xlink:href="#DejaVuSans-6d" transform="translate(286.279297 0)"/>
      <use xlink:href="#DejaVuSans-70" transform="translate(383.691406 0)"/>
     </g>
    </g>
    <g id="line2d_30">
     <path d="M 66.6 171.995437 
L 76.6 171.995437 
L 86.6 171.995437 
" style="fill: none; stroke: #bcbd22; stroke-width: 1.5; stroke-linecap: square"/>
    </g>
    <g id="text_22">
     <!-- 4500 mp -->
     <g transform="translate(94.6 175.495437) scale(0.1 -0.1)">
      <use xlink:href="#DejaVuSans-34"/>
      <use xlink:href="#DejaVuSans-35" transform="translate(63.623047 0)"/>
      <use xlink:href="#DejaVuSans-30" transform="translate(127.246094 0)"/>
      <use xlink:href="#DejaVuSans-30" transform="translate(190.869141 0)"/>
      <use xlink:href="#DejaVuSans-20" transform="translate(254.492188 0)"/>
      <use xlink:href="#DejaVuSans-6d" transform="translate(286.279297 0)"/>
      <use xlink:href="#DejaVuSans-70" transform="translate(383.691406 0)"/>
     </g>
    </g>
    <g id="line2d_31">
     <path d="M 66.6 186.673562 
L 76.6 186.673562 
L 86.6 186.673562 
" style="fill: none; stroke: #17becf; stroke-width: 1.5; stroke-linecap: square"/>
    </g>
    <g id="text_23">
     <!-- 5000 mp -->
     <g transform="translate(94.6 190.173562) scale(0.1 -0.1)">
      <use xlink:href="#DejaVuSans-35"/>
      <use xlink:href="#DejaVuSans-30" transform="translate(63.623047 0)"/>
      <use xlink:href="#DejaVuSans-30" transform="translate(127.246094 0)"/>
      <use xlink:href="#DejaVuSans-30" transform="translate(190.869141 0)"/>
      <use xlink:href="#DejaVuSans-20" transform="translate(254.492188 0)"/>
      <use xlink:href="#DejaVuSans-6d" transform="translate(286.279297 0)"/>
      <use xlink:href="#DejaVuSans-70" transform="translate(383.691406 0)"/>
     </g>
    </g>
   </g>
  </g>
 </g>
 <defs>
  <clipPath id="pe9ccaad5ec">
   <rect x="57.6" y="41.472" width="357.12" height="266.112"/>
  </clipPath>
 </defs>
</svg>
