<?xml version="1.0" encoding="UTF-8" standalone="no"?>
<!-- Created with Inkscape (http://www.inkscape.org/) -->

<svg
   version="1.1"
   id="svg1"
   width="1024"
   height="1024"
   viewBox="0 0 1024 1024"
   sodipodi:docname="yaqsi-logo.svg"
   inkscape:version="1.4.3 (unknown)"
   xmlns:inkscape="http://www.inkscape.org/namespaces/inkscape"
   xmlns:sodipodi="http://sodipodi.sourceforge.net/DTD/sodipodi-0.dtd"
   xmlns="http://www.w3.org/2000/svg"
   xmlns:svg="http://www.w3.org/2000/svg">
  <defs
     id="defs1" />
  <sodipodi:namedview
     id="namedview1"
     pagecolor="#ffffff"
     bordercolor="#000000"
     borderopacity="0.25"
     inkscape:showpageshadow="2"
     inkscape:pageopacity="0.0"
     inkscape:pagecheckerboard="0"
     inkscape:deskcolor="#d1d1d1"
     inkscape:zoom="1.1269531"
     inkscape:cx="512"
     inkscape:cy="512"
     inkscape:window-width="2560"
     inkscape:window-height="1403"
     inkscape:window-x="0"
     inkscape:window-y="0"
     inkscape:window-maximized="1"
     inkscape:current-layer="svg1" />
  <path
     style="fill:#000000"
     d="m 611.5,623.79167 -12,-19.11382 -0.32332,-1.33892 L 598.85335,602 h 15.46634 15.46633 l 0.57561,-1.5 0.5756,-1.5 h -1.25952 -1.25951 l -10.3295,-15.01539 -10.3295,-15.0154 -0.8558,-0.52891 -0.8558,-0.52892 10.4762,15.46025 L 627,598.83187 v 1.09052 1.09052 L 569.32492,600.75645 511.64983,600.5 499.82492,581.5977 488,562.69541 V 561.8477 561 l 19.25,-0.0703 19.25,-0.0703 1.5,-0.67972 1.5,-0.67971 0.15617,-2 0.15616,-2 -1.52814,2.25 -1.52813,2.25 h -20.40067 -20.40067 l -6.63258,-10.25 -6.63258,-10.25 -2.87733,-4.47058 -2.87733,-4.47059 0.28255,-10.02941 L 467.5,510.5 l 28.90403,-0.26559 28.90404,-0.26559 1.91994,1.73753 1.91995,1.73753 -0.32398,-1.47194 L 528.5,510.5 l 9.71144,-0.28575 9.71144,-0.28574 2.13181,4.1787 2.13182,4.1787 4.40675,7.08118 L 561,532.44827 V 533.22414 534 h -9.17126 -9.17126 l -1.91242,-1.73072 -1.91243,-1.73072 1.21555,2.66785 1.21556,2.66784 -2.67403,4.56288 L 535.91569,545 h 0.45638 0.45638 l 3.07653,-5 3.07653,-5 19.25925,0.002 19.25924,0.002 2.84182,4.49821 2.84183,4.49821 h 0.52318 0.52319 l -1.61482,-2.46452 -1.61482,-2.46453 -5.50019,-9.07063 L 574,520.92968 V 519.96484 519 h 25.5 25.5 v 1.515 1.515 l -9.20316,14.235 -9.20315,14.235 -2.37079,3.5 -2.37078,3.5 -1.44624,0.81098 -1.44624,0.81099 -1.89566,-0.60166 -1.89567,-0.60166 -0.64317,1.04067 L 593.88197,560 h 2.98621 2.98621 l 3.21055,3.75 3.21056,3.75 -2.23976,-3.78309 -2.23976,-3.78308 3.17271,-5.21692 3.17271,-5.21691 10.6793,-16 10.6793,-16 1.57296,-0.28923 1.57297,-0.28923 14.17703,21.31232 L 661,559.54619 v 1.37391 1.37392 l -3.58522,4.60299 -3.58522,4.60299 3.97109,-4.25 3.97109,-4.25 h 0.95255 0.95256 l 9.01755,12.75 9.01755,12.75 6.14402,9.21164 6.14403,9.21164 v 1.31261 1.3126 L 676.8217,625.52425 659.6434,641.5 657.8217,641.4206 656,641.3412 V 642.1706 643 l -16.25,-0.0473 -16.25,-0.0472 z M 651.88908,638.75 650.70779,636.5 639.71462,620.25 628.72146,604 H 615.26253 601.8036 l 2.11821,3.25 2.11822,3.25 9.66907,15.25 9.66907,15.25 h 13.8461 13.8461 z m 19.83935,-11.5 12.46487,-11.75 4.07433,-3.56504 4.07432,-3.56503 -10.85624,-15.93497 -10.85625,-15.93496 -4.13109,-5.69771 -4.13109,-5.69771 -15.16829,18.01825 -15.16829,18.01825 9.1621,13.67946 9.16211,13.67946 3.94415,5.25 3.94416,5.25 h 0.51017 0.51017 z M 622.2353,596.24244 620.5,593.48488 614.11329,583.99244 607.72658,574.5 603.27551,568.25 598.82444,562 h -34.3674 -34.3674 l 11.70518,17.93797 11.70518,17.93797 14,0.34177 14,0.34177 21.2353,0.22026 L 623.9706,599 Z M 547.29969,596.6906 546.5,595.38119 535.71891,579.1906 524.93783,563 h -17.09089 -17.09088 l 1.56874,2.25 1.56874,2.25 5.25995,8.5 5.25995,8.5 4.34173,6.75 4.34173,6.75 h 17.50124 17.50124 z m 87.26322,-1.9406 2.93709,-3.25 -3.25,2.93709 -3.25,2.93709 V 597.68709 598 h 0.31291 0.31291 z M 648.31559,575.13199 659.5,561.76398 659.36016,560.63199 659.22032,559.5 645.58036,539.25 631.9404,519 h -0.87467 -0.87467 l -12.58915,19.40159 -12.58915,19.40159 -0.50876,1.34841 -0.50876,1.34841 9.6623,14 9.6623,14 3.02576,4.42015 3.02575,4.42014 3.87992,-4.42014 3.87992,-4.42015 z M 641,587.5 643.34863,585 h -0.5 -0.5 L 640,587.5 637.65137,590 h 0.5 0.5 z m 11,-13 2.34863,-2.5 h -0.5 -0.5 L 651,574.5 648.65137,577 h 0.5 0.5 z m -120.04708,-27.23533 6.43724,-10.73532 -0.12345,-1.63874 -0.12344,-1.63875 -6.34001,-10.37593 L 525.46324,512.5 H 497.48162 469.5 l 0.36899,9.41076 0.369,9.41076 8.45467,13.33924 L 487.14733,558 h 19.18418 19.18417 z m 56.79688,2.3772 -5.2498,-8.35813 -1.5,-2.04406 -1.5,-2.04406 -18.04935,-0.67311 -18.04934,-0.67311 -5.36771,8.8253 -5.36771,8.8253 -1.44796,2.25 -1.44795,2.25 h 31.61481 31.61482 z m 19.2621,-5.29235 7.4881,-11.61923 3.77426,-5.86514 L 623.04851,521 h -23.53015 -23.53015 l 5.64976,8.75 5.64976,8.75 5.53159,9.15129 5.53159,9.15128 1.08645,-0.41691 1.08645,-0.41691 z M 555.22065,527.75 l -2.87544,-4.25 -3.246,-5.75 -3.24599,-5.75 h -7.39851 -7.39851 l 6.04102,10 6.04102,10 h 7.47892 7.47892 z m -425.76882,72.98507 -0.49757,-1.29666 0.27287,-18.9692 L 129.5,561.5 l 28.27076,-0.26561 28.27075,-0.26561 -0.27075,20.26561 L 185.5,601.5 l -27.7753,0.26586 -27.7753,0.26587 z M 177.25,599.34829 184,598.71079 V 580.8554 563 h -26 -26 v 17.91667 17.91666 l 1.25,0.50439 1.25,0.50439 18,0.0718 18,0.0718 z m 45.4584,2.02677 L 222,600.66667 V 580.33333 560 h 0.96862 0.96861 l -0.48586,-1.26614 -0.48587,-1.26615 2.39576,-7.98385 2.39577,-7.98386 5.26991,-16.31661 5.26992,-16.31661 9.35806,-14.68339 9.35807,-14.68339 7.7435,-12.22379 7.74351,-12.22379 14.12377,-22.08614 14.12376,-22.08614 27.87624,-0.16014 27.87623,-0.16015 -27.32025,-0.29587 -27.32026,-0.29586 0.32026,-1.39047 0.32025,-1.39047 13.5,-21.04683 13.5,-21.04682 29.35699,-0.0468 29.35699,-0.0468 -0.55606,1.44907 -0.55606,1.44907 1.34073,-0.51448 1.34073,-0.51449 6.99311,11.31542 6.99311,11.31541 8.19138,13.5 8.19137,13.5 -1.2368,2 -1.2368,2 1.52798,-1.26233 1.52797,-1.26233 0.99132,1.26233 0.99131,1.26233 5.00959,8.5 5.00958,8.5 8.25464,13.5 8.25464,13.5 1.76961,2.50336 1.76961,2.50336 2.63338,7.84469 2.63337,7.84468 -0.27584,33.27518 -0.27585,33.27517 1.00257,-0.38526 1.00256,-0.38526 8.96498,14.76204 8.96497,14.76204 5.28246,8.44702 5.28246,8.44702 0,1.30298 0,1.30298 h -35.75728 -35.75728 l -2.59045,-4.25 -2.59045,-4.25 -6.81953,-11 -6.81953,-11 -5.15434,-8.5 -5.15434,-8.5 -22.4284,-0.5 -22.4284,-0.5 -12.1294,0.34951 -12.12941,0.3495 -5.1408,9.1505 -5.1408,9.15049 -6.37501,10.81231 -6.37501,10.81231 -6.78709,4.68769 -6.78708,4.68769 -29.1093,0.29173 -29.10931,0.29173 z M 278,581 v -18 l -12.25,-0.004 -12.25,-0.004 -14.25,-0.65189 L 225,561.6889 V 580.34445 599 h 26.5 26.5 z m 2.72473,9.76791 -0.40466,-3.26791 -0.0102,6 -0.0102,6 0.41487,-2.73209 0.41486,-2.73209 z m 176.93368,6.48209 -0.45962,-0.75 -7.11085,-11.5 -7.11086,-11.5 -0.81141,-1.30917 -0.8114,-1.30917 -12.92714,2.01495 -12.92713,2.01495 -5.21538,0.79422 -5.21539,0.79422 6.70781,10.75 6.70782,10.75 h 19.81659 19.81658 z m 26.27914,-1.36669 -1.13282,-2.11669 -10.49135,-17.13331 -10.49136,-17.13331 -1.47791,-2.31692 -1.47791,-2.31692 -1.45848,1.21042 -1.45847,1.21043 -4.92435,5.68425 -4.92435,5.68424 6.26963,10.42225 6.26963,10.42225 2.69264,4.25 2.69264,4.25 h 10.52264 10.52264 z m -194.02796,-3.28524 3.40959,-2.54689 4.28507,-7.227 4.28506,-7.22701 -3.69465,-2.08029 -3.69466,-2.08029 -5.75,-3.22685 -5.75,-3.22684 v 16.04373 16.04374 l 1.75,-0.96271 1.75,-0.9627 z M 424.5,568.94834 l 14,-2.12142 0.22224,-0.21903 0.22224,-0.21904 -9.72224,-15.66121 L 419.5,535.06643 405.34384,535.03321 391.18768,535 l -0.59911,4.75 -0.5991,4.75 -0.15489,3.5 -0.15489,3.5 6.29982,10.36678 6.29983,10.36678 4.11033,-0.58191 4.11033,-0.5819 z m -116.65795,-3.48115 3.30932,-5.53281 -5.61133,-7.71719 -5.61132,-7.71719 -2.42011,-2.96092 -2.4201,-2.96092 -0.42941,0.46092 -0.4294,0.46092 -5.11485,10.23183 L 284,559.96366 V 560.48183 561 h 1.02547 1.02547 l 8.72453,4.97073 8.72453,4.97073 0.51637,0.0293 0.51637,0.0293 z m 138.03844,0.11311 1.61951,-1.91971 -3.25215,2.35936 -3.25216,2.35935 1.25216,0.77831 1.25215,0.7783 0.38049,-1.21796 0.38049,-1.21795 z m 3.35816,-7.99129 5.47283,-6.41098 0.48487,-27.83902 0.48488,-27.83901 -0.59061,-4.82191 -0.59062,-4.82191 -9.5,7.84136 -9.5,7.84135 -6.35073,4.95721 -6.35073,4.95721 0.39899,11.02335 0.399,11.02334 8.82318,14 8.82318,14 1.001,1.25 1.001,1.25 h 0.26046 0.26047 z m -183.51095,2.68119 -3.77231,-0.39359 -3.22769,0.40166 -3.2277,0.40166 7,-0.008 7,-0.008 z m 20.22866,-14.0202 6.4193,-12.75 0.42336,-10.76654 0.42336,-10.76655 -26.78072,0.26655 -26.78071,0.26654 -3.37646,10.5 -3.37646,10.5 -3.47927,11.39141 -3.47927,11.39141 0.57206,0.57207 0.57207,0.57206 23.70319,0.61126 23.70319,0.61126 2.51852,0.17526 L 279.53705,559 Z M 315.5,552 l 1.55136,-3 h 9.99296 9.99297 l -3.76865,-6.98303 -3.76864,-6.98302 -15.36869,-0.017 -15.36869,-0.017 2.47814,3.25 2.47813,3.25 4.71787,6.75 4.71787,6.75 h 0.39701 0.397 z M 385.36408,544.36043 386,539.72086 V 537.36043 535 h -25.54215 -25.54216 l 2.6903,4.75 2.69031,4.75 1.3749,2.25 1.37491,2.25 h 20.84102 20.84102 z m 2.32891,0.9086 -0.46099,-1.76903 -0.0371,3 -0.0371,3 0.49805,-1.23097 0.49804,-1.23097 z m 33.7661,-12.51903 -0.47814,-1.25 -16.74047,0.48767 -16.74048,0.48768 17,0.54909 17,0.5491 0.21862,0.21323 0.21861,0.21323 z m -3.50982,-3.47728 0.59471,-0.77272 -0.34814,-8.25 -0.34813,-8.25 H 357.92385 298 v 9.66332 9.66332 l 59.67728,-0.6406 59.67728,-0.6406 z M 354.7056,510 h 58.62773 l -0.52384,-0.52384 -0.52384,-0.52384 -40.79008,0.0241 -40.79009,0.0241 -1.35274,-1.12268 L 328,506.75511 v 1.10244 1.10245 l -43.66462,0.018 -43.66463,0.0179 -0.50204,0.50205 L 239.66667,510 H 267.33333 295 l 0.20564,8.75 0.20563,8.75 0.3333,-8.75 0.3333,-8.75 z m 68.10129,-1.46689 1.69311,-1.99864 -1.73727,1.34464 -1.73726,1.34464 -1.48071,-0.5682 -1.48071,-0.5682 -0.52628,0.85154 -0.52628,0.85154 1.49425,0.5734 1.49426,0.5734 0.18908,5.78139 0.18909,5.78138 0.3678,-5.98412 0.36781,-5.98412 z m -126.76038,-3.81453 1.54652,-2.21858 11.84438,-18.27577 11.84439,-18.27576 -0.3909,-0.33779 -0.3909,-0.33778 -25.15104,-0.57454 -25.15105,-0.57453 -1.47352,1.68808 -1.47352,1.68809 -12.57013,19.75 -12.57013,19.75 26.19469,-0.0314 26.1947,-0.0314 z m 35.33442,-7.68328 5.76403,-9.96469 -5.32248,-9.51346 -5.32248,-9.51347 -0.60187,-0.0218 -0.60187,-0.0218 -11.82594,18.25 -11.82595,18.25 -0.94463,1.25 -0.94463,1.25 H 312.686 325.61689 Z M 382,506.36803 v -0.63196 L 379.91844,502.36803 377.83688,499 h -20.35035 -20.35034 l -1.90413,2.75 -1.90413,2.75 -0.72298,1.25 -0.72298,1.25 H 356.94098 382 Z m 31.83333,-0.2109 -0.33333,-0.84286 -12.5,-20.74983 -12.5,-20.74982 -12,0.68889 -12,0.68889 -0.3254,0.31253 -0.3254,0.31253 5.90513,9.84127 5.90513,9.84127 4.33279,8 4.33278,8 1.90558,2.75 1.90558,2.75 h 13.01524 13.01524 z m 20.38823,-10.13924 12.27844,-9.98212 3.44357,-2.90011 3.44358,-2.90011 -1.30189,-4.36778 -1.30189,-4.36777 -6.2405,-10 -6.2405,-10 -8.8663,-14.74917 -8.8663,-14.74917 -1.17753,1.24917 -1.17753,1.24917 -12.08417,18.88301 -12.08416,18.88301 0.32465,0.61699 0.32466,0.61699 12.70992,21.25 12.70992,21.25 h 0.9138 0.9138 z m -76.83224,1.19361 21.61254,0.2885 -9.3e-4,-0.28302 L 379,496.93397 371.35527,483.71698 363.71055,470.5 l -1.81119,-3.37497 -1.81119,-3.37497 -1.82821,-1.28053 -1.82822,-1.28053 -4.3973,7.1555 -4.3973,7.1555 -4.17045,6.5 -4.17044,6.5 -3.22679,6 -3.22679,6 1.46706,-1.7885 1.46705,-1.78849 z M 455,482.29551 v -0.46357 l -3.98612,3.15707 -3.98613,3.15707 -0.71728,1.16058 -0.71728,1.16059 4.70341,-3.85409 L 455,482.75908 Z M 347.91846,469.97012 355.33692,458 h 1.0028 1.0028 l 1.6244,1.47007 1.62441,1.47006 12.57677,-0.72006 12.57677,-0.72007 -13.06015,-21.77076 -13.06015,-21.77076 -0.76068,0.27076 -0.76067,0.27076 -11.15048,17.5 -11.15047,17.5 -3.62852,5.33881 -3.62852,5.33882 2.72738,4.91118 L 334,472 l 2.75,4.99159 2.75,4.99159 0.5,-0.0215 0.5,-0.0215 z m 43.71307,-9.67193 -0.54527,-0.54527 -1.69663,0.65106 -1.69662,0.65106 1.90349,1.40537 1.9035,1.40537 0.3384,-1.51116 0.33839,-1.51116 z m -78.32511,1.95583 -11.19358,-0.31847 -11.80642,0.31719 -11.80642,0.31719 23,0.001 23,0.001 z m 60.96261,0.09 -1.23097,-0.49804 -1.76903,0.46099 -1.76903,0.46099 3,0.0371 3,0.0371 z m -44.64947,-9.59406 4.71647,-7.25 9.62796,-15 9.62796,-15 0.76304,-1.25 0.76304,-1.25 H 328.60747 302.0969 l -4.71492,7.25 -4.71492,7.25 -10.31562,16.25 -10.31561,16.25 h 26.43364 26.43363 z M 403.5,438.34468 l 12,-18.55548 0.81154,-1.69006 0.81155,-1.69005 -9.39735,-15.45455 -9.39735,-15.45454 -4.79761,-7.84639 -4.7976,-7.84638 -9.96274,15.34638 -9.96274,15.34639 -3.32952,5 -3.32952,5 1.61864,2.5 1.61863,2.5 7.95844,13 7.95844,13 4.5986,7.72542 4.59859,7.72543 0.5,-0.0254 0.5,-0.0253 z m -43.2304,-27.08449 -0.50317,-1.31124 -1.38321,1.14797 L 357,412.24489 v 0.16327 0.16327 h 1.88639 1.88638 z m 10.42009,-21.47036 12.60747,-19.21018 0.46805,-1.78982 L 384.23326,367 h -25.9255 -25.9255 l -1.6026,1.25 -1.60261,1.25 -8.74138,13.5 -8.74137,13.5 -3.83637,6.25 -3.83637,6.25 h 27.03033 27.03034 z M 882,581.52988 v -20.47013 l 12.75,-0.31254 12.75,-0.31255 -12.75,-0.21733 L 882,560 v -84.80472 -84.80472 l 8.63012,-11.94528 8.63012,-11.94528 1.11988,-0.74419 1.11988,-0.74419 25.5,0.24419 25.5,0.24419 0.30171,27.71913 0.3017,27.71913 -1.08689,2.03087 L 950.92963,425 H 951.96482 953 v 35.3 35.3 l -1.2,1.2 -1.2,1.2 h 1.2 1.2 v 26.41667 26.41666 l -1.25,0.50439 -1.25,0.50439 1.25,0.0789 L 953,552 v 18.78149 18.78149 l -7.54538,5.80809 -7.54538,5.80808 -1.42259,-0.5459 -1.4226,-0.5459 -0.59104,0.95632 L 933.88197,602 H 907.94098 882 Z m 50.64185,13.72012 -0.61984,-3.75 -0.011,-14.25 L 932,563 h -24 -24 v 18 18 h 24.63084 24.63084 z M 945.25,592.17742 951,587.70497 V 571.35248 555 h -0.48107 -0.48106 l -6.51894,3.21463 L 937,561.42926 v 18.34439 18.34438 l 1.25,-0.73408 1.25,-0.73408 z M 935.64286,559.5 l 1.5,-1.5 h -0.94899 -0.94898 L 934,559.5 932.75511,561 h 0.69387 0.69388 z m -3.98833,-2.75 0.89942,-1.25 -0.36291,-21.75 L 931.82813,512 H 907.91406 884 v 23 23 h 23.37756 23.37755 z M 951,524.86874 v -24.10612 l -3.75,2.80938 -3.75,2.80937 -3.25,2.428 -3.25,2.42801 v 22.39388 22.39388 l 7,-3.52514 7,-3.52514 z M 935.26648,509.75 l 0.48045,-1.25 -26.62347,0.49093 -26.62346,0.49092 26,0.53456 26,0.53455 0.14301,0.22452 0.14301,0.22452 z m -2.62463,-6.5 -0.61984,-3.75 -0.011,-25.25 L 932,449 h -24 -24 v 29 29 h 24.63084 24.63084 z m 11.26728,-3.43312 5.59087,-4.18312 0.73469,-1.06688 0.73468,-1.06688 0.0153,-32.47174 0.0153,-32.47174 -6.98748,9.47174 -6.98749,9.47174 -0.0125,28.25 L 937,504 h 0.65913 0.65913 z m -6.31412,-57.04965 1.90499,-2.23276 -1.59201,1.22409 -1.59201,1.22409 -0.65799,-0.65799 L 935,441.66667 V 443.33333 445 h 0.34501 0.34501 z M 932.45833,438.54239 932.41667,434 932.20833,414.5 932,395 h -24 -24 l -10e-6,24.25 -10e-6,24.25 24.25001,-0.20761 24.25001,-0.20761 z m 12.10632,-9.62881 5.51076,-7.36585 0.49484,-2.02387 0.49483,-2.02386 -0.28254,-21.79802 -0.28254,-21.79802 -6.75,9.49786 -6.75,9.49786 0.0136,19.80016 0.0137,19.80016 0.61335,2.28966 0.61335,2.28967 0.39994,-0.39995 0.39995,-0.39994 z M 934.68933,393.25 934.232,391.5 v 3.5 3.5 l 0.45733,-1.75 0.45732,-1.75 z m -20.88614,-0.99486 -9.6968,-0.32628 -10.3032,0.32467 -10.30319,0.32468 20,0.002 20,0.002 z m 22.50044,-5.53907 2.35364,-3.21607 4.90029,-7 4.90028,-7 -0.31433,-0.3882 -0.31433,-0.38819 1.33541,-0.84649 1.33541,-0.84649 h -24 -24 l -1.04824,0.73468 -1.04824,0.73469 -7.70176,10.75478 -7.70176,10.75478 -7.7e-4,0.24522 -7.7e-4,0.24522 24.47576,-0.28393 24.47576,-0.28393 z M 187,580.58333 v -20.41666 l 1.25,-0.50439 1.25,-0.50439 -1.25,-0.0789 L 187,559 v -20.60699 -20.60699 l 1.52314,0.58449 1.52314,0.58448 -1.19679,-2.2275 -1.19679,-2.22749 -0.72399,-3 -0.72399,-3 -0.10236,25.76557 L 186,560.03115 157.75,559.76557 129.5,559.5 v -25.62353 -25.62353 l -1.15201,0.44292 -1.15201,0.44291 L 107.47163,479.31939 87.74729,449.5 87.276851,448.27657 86.806412,447.05314 102.15321,446.74851 117.5,446.44388 101.2534,446.22194 85.00679,446 81.253395,439.93154 77.5,433.86308 65.25,414.83318 53,395.80327 v -2.40189 -2.40188 L 63.189969,377.99975 73.379939,365 103.68997,365 134,365 v 1 1 h 1.32135 1.32135 l 9.36417,15.25 9.36417,15.25 5.88055,9.31793 5.88054,9.31793 -1.20751,1.45496 -1.20751,1.45496 1.62075,-0.62193 1.62074,-0.62194 5.73661,8.99058 5.73661,8.99059 8.53409,-12.50783 8.53409,-12.50783 28,0.14337 28,0.14337 0.33333,0.97292 0.33334,0.97292 h 1.20238 1.20238 l 5.9e-4,-1.75 6e-4,-1.75 -28.78631,0.27954 L 198,410.05907 v -0.94293 -0.94293 l 12.62544,-19.83661 12.62543,-19.8366 1.52955,-1.75 1.52956,-1.75 28.84501,0 L 284,365 v 0.8 0.8 l -1,1.2 -1,1.2 1.2,-1 1.2,-1 h 0.82243 0.82243 l 5.56826,8.54247 5.56826,8.54247 -0.47431,1.23604 -0.47432,1.23605 -14.62329,22.27623 -14.6233,22.27622 -0.98162,-0.60668 -0.98163,-0.60668 0.58579,1.52656 0.5858,1.52655 -1.96472,3.27539 -1.96472,3.27538 -10.27435,17 -10.27435,17 -4.46013,6.78784 -4.46013,6.78783 -1.64805,-1.28783 L 229.5,484.5 l 1.29922,1.66177 1.29923,1.66178 -15.1403,22.77235 -15.1403,22.77235 0.31842,9.56587 0.31841,9.56588 -0.74365,1.1809 -0.74365,1.1809 1.01631,0.62812 1.01631,0.62811 v 16.88387 16.88387 l -7.10224,5.55711 L 188.79553,601 H 187.89776 187 Z m 11.00248,10.10601 3.29515,-2.81066 -0.69218,-14.64937 -0.69219,-14.64938 -0.42699,-0.42699 -0.42699,-0.42699 -4.77964,1.96056 -4.77964,1.96056 -0.27353,17.78957 -0.27354,17.78957 2.8772,-1.86311 2.8772,-1.8631 z M 184,535 v -23 h -26 -26 v 23 23 h 26 26 z M 195.11579,554.26528 200,552.53056 V 543.26528 534 h -2.25899 -2.25899 l -3.20729,-5.25 -3.20728,-5.25 -0.0337,16.25 L 189,556 h 0.61579 0.61578 z m 19.69496,-44.75825 14.21638,-21.49298 -4.5236,-9.00702 -4.5236,-9.00703 -0.73997,0.0346 -0.73996,0.0346 -6.20195,9.21541 -6.20195,9.21542 -8.54882,10.9599 -8.54882,10.9599 0.57599,2.0401 0.57599,2.0401 3.8787,8.25 3.8787,8.25 h 1.34326 1.34326 z m -24.5139,-6.75703 4.45149,-5.25 8.54482,-11.93351 8.54483,-11.9335 2.14499,-3.8165 L 216.12797,466 H 201.22099 186.314 l -11.907,-0.58891 -11.907,-0.58891 -11.1848,15.83891 -11.1848,15.83891 -4.14428,5.75 -4.14427,5.75 h 27.00175 27.00175 z M 142.66658,486 l 13.92376,-19.5 0.67199,-1.10136 0.67198,-1.10137 -4.4862,-6.39863 -4.4862,-6.39864 -1.67208,-1.25 -1.67209,-1.25 H 117.95103 90.284323 l 18.921967,28.60253 18.92197,28.60254 0.30728,-0.35254 0.30727,-0.35253 z M 249.39523,456.06421 263.00156,433.5 l -0.014,-1.5 -0.014,-1.5 -4.02072,-7.25 -4.02072,-7.25 h -0.47568 -0.47569 L 238.49037,439.56251 223,463.12502 v 1.46246 1.46245 l 3.6157,7.22503 3.61571,7.22504 1.07131,1.3278 1.07131,1.3278 1.70743,-2.26359 1.70743,-2.26359 z M 220.82874,466.09738 219.51891,464 l -4.00946,0.16004 -4.00945,0.16003 3.25,0.40333 3.25,0.40332 V 466.06336 467 h 1.5 1.5 v 1.16667 1.16666 l 0.56929,-0.56928 0.56929,-0.56929 z M 180.25,463.22903 164,462.95046 v -1.66636 -1.66636 l -1.3483,1.84391 -1.34829,1.8439 -1.14025,-0.70471 -1.14025,-0.70472 0.49823,1.30194 0.49823,1.30194 18.24032,-0.4962 18.24031,-0.4962 z m 54.37351,-24.70868 15.63331,-23.47966 0.80249,0.49597 0.80249,0.49596 0.72361,-1.17082 0.72361,-1.17082 -1.32445,0.81856 -1.32445,0.81855 0.63856,-1.66405 L 251.93723,412 H 225.1236 198.30998 l -1.56841,1.75 -1.5684,1.75 -14.60057,22.5 -14.60056,22.5 9.76398,0.55633 9.76398,0.55634 16.7451,0.19366 L 218.99021,462 Z M 169,448.47893 l 7.5,-11.48444 -0.32508,-1.24724 -0.32508,-1.24725 -4.15498,-6.75 -4.15498,-6.75 -0.51994,0.0333 -0.51994,0.0332 -7.83188,12.97502 -7.83188,12.97502 4.63241,6.49173 4.6324,6.49174 0.69948,-0.0183 0.69947,-0.0183 z M 149.57143,447 v -2 H 148.28571 147 v 0.8 0.8 l 1.2,1.2 1.2,1.2 h 0.0857 0.0857 z m -6.19955,-3.25 -0.74616,-1.25 -14.30249,-21.9689 -14.30249,-21.96889 -0.2656,-0.79679 -0.26559,-0.79678 -28.851197,-0.6475 -28.851191,-0.64749 6.108262,9.41318 6.108262,9.41317 9.248157,14.71408 9.248157,14.71407 17.5,0.31053 17.5,0.31052 11.30902,0.2254 L 144.11803,445 Z M 156.47625,429.97293 164,417.56504 v -1.22568 -1.22568 l -5.75,-8.98919 -5.75,-8.98918 -8.33608,-13.6223 -8.33607,-13.62229 -0.82105,0.30464 -0.82106,0.30464 -8.59287,11.1876 L 117,392.87519 v 1.06586 1.06585 l 9.83452,15.24655 9.83452,15.24655 5.7694,8.81275 5.76939,8.81276 0.37234,-0.37234 0.37234,-0.37234 z M 281.59771,404.57993 294,385.65985 v -0.95846 -0.95846 l -4.25,-6.83066 -4.25,-6.83065 -0.5,-0.0285 -0.5,-0.0285 -13.25,19.93313 -13.25,19.93313 0.0132,1.30453 0.0132,1.30452 4.13533,7.45755 4.13533,7.45755 1.44916,-1.95755 1.44917,-1.95755 z m -14.55323,-15.14652 13.06939,-19.56659 0.55006,-1.43341 0.55005,-1.43341 -27.35699,0.001 -27.35699,0.001 -12.5,19.63732 -12.5,19.63733 -0.79969,1.36127 L 199.90062,409 h 27.03723 27.03723 z m -152.04266,4.81659 0.002,-0.75 -6.25182,0.27847 -6.25182,0.27846 -3,0.3115 -3,0.3115 9.25,0.16003 L 115,395 Z m -46.218298,-0.98367 -4.716478,-0.37317 -5.283522,0.36844 -5.283522,0.36844 10,0.005 10,0.005 z m 52.486288,-11.71857 8.7563,-11.45224 0.59394,-1.54776 L 131.21398,367 H 102.68833 74.162683 L 64.583437,379.25 55.00419,391.5 65.752095,392.05233 76.5,392.60465 94.50675,392.80233 112.5135,393 Z M 703.75,600.24989 700,599.87927 V 581.43963 563 h 26.91667 26.91666 l 0.50439,1.25 0.50439,1.25 0.0789,-1.25 L 755,563 h 1.62244 1.62245 l -1.11377,-1.34201 -1.11377,-1.34201 0.74133,-0.89733 0.74132,-0.89734 -2.07874,1.73935 L 753.34252,562 h -26.78789 -26.78789 l 0.45901,-1.75528 0.45902,-1.75529 8.75804,-11.24471 8.75805,-11.24472 23.14957,0.011 23.14957,0.011 3.80345,0.62851 3.80345,0.62851 -0.53263,1.61049 -0.53264,1.61048 1.60116,-2.25 1.60115,-2.25 H 782.12197 790 v -0.47583 -0.47583 l -1.90988,-3.14054 -1.90987,-3.14054 -5.34013,-2.21647 L 775.5,524.33432 746.69102,512.49388 717.88204,500.65344 716.53002,497.4176 715.178,494.18177 705.589,480.0282 696,465.87463 v -1.4752 -1.4752 l 21.35098,0.28788 21.35097,0.28789 1.83036,-2.5 1.83035,-2.5 -2.01007,1.75 -2.01007,1.75 -21.67126,0 H 695 V 436.5 411 h 29.54665 29.54664 l -0.29664,16.35422 -0.29665,16.35421 1.75987,-1.10093 1.75987,-1.10092 -1.00987,-0.33662 L 755,440.83333 v -13.02365 -13.02366 l 1.64144,0.62988 1.64145,0.62988 -1.18451,-1.42723 -1.1845,-1.42724 0.67217,-2.84566 0.67217,-2.84565 -1.32911,1.25 L 754.6,410 H 725.3 696 v -0.9195 -0.9195 l 13.45254,-20.3305 13.45254,-20.3305 1.07349,-1.23565 1.07348,-1.23566 64.97398,-0.006 L 855,365.0164 v 1.55082 1.55081 l 0.9146,-0.56525 0.9146,-0.56525 6.13141,10.68584 6.13142,10.68585 -0.29602,1.78756 -0.29601,1.78757 -13.82696,20.0914 -13.82695,20.0914 -1.44594,-1.20002 -1.44593,-1.20002 0.57079,1.48748 0.5708,1.48747 -9.79791,0.6488 -9.7979,0.64879 -23.75,0.005 L 772,434 v 6.38306 6.38306 l 12.00755,4.69592 12.00755,4.69592 1.42102,1.42102 1.42102,1.42102 h 1.51151 1.51151 l 22.30992,10.10041 22.30992,10.10041 3.78324,1.64959 3.78323,1.64959 -0.43962,1.75 -0.43961,1.75 h 1.21431 1.21431 l 6.69758,13.75 6.69757,13.75 -0.0201,29.59061 -0.0201,29.5906 -18.73544,12.04937 -18.73544,12.04937 -4.21386,2.00182 -4.21385,2.00181 -57.78615,-0.0815 L 707.5,600.62051 Z M 768,597.48824 v -0.51176 L 759.99411,580.98824 751.98822,565 H 726.99411 702 v 15.83333 15.83334 l 0.66667,0.66666 L 703.33333,598 H 735.66667 768 Z M 822.25941,597.25 822.63685,596.5 822.21157,580.75 821.7863,565 h -32.40981 -32.4098 l 8.26666,16.46712 8.26665,16.46713 24.19098,0.0329 24.19099,0.0329 z m 2.78002,-38.79551 -0.0111,-36.82827 1.73585,-2.06311 L 828.5,517.5 l -2.25,1.90499 -2.25,1.90499 v 37.51167 37.51168 l 0.52529,-0.52528 0.52529,-0.52529 z m 12.74646,31.38538 9.71411,-6.16013 9.75,-6.36571 9.75,-6.36572 v -12.55749 -12.55749 l -0.81872,0.33334 -0.81873,0.33333 -19.18127,8.94684 L 827,564.39368 V 580.19684 596 h 0.53589 0.53588 z M 780.25,562.2766 777,561.87328 l -3.25,0.40332 -3.25,0.40333 h 6.5 6.5 z m -21.62116,-8.99952 5.87116,-7.72292 2.83651,-3.77708 L 770.17302,538 H 744.68869 719.20436 L 710.60218,548.92696 702,559.85393 V 560.42696 561 h 25.37884 25.37884 z M 805,560.48485 V 559.9697 L 801.90454,554.48485 798.80908,549 h -0.96356 -0.96355 l 0.61803,-1 0.61803,-1 h -1.22568 -1.22568 l 0.65112,-0.65112 0.65112,-0.65113 -1.61286,-1.17935 -1.61286,-1.17935 -0.12159,-2.41953 L 793.5,538.5 l -9,-0.28947 -9,-0.28946 -8.74724,11.53946 L 758.00551,561 H 781.50276 805 Z m 17,-16.61402 v -17.12916 l -5.75,0.60818 -5.75,0.60818 -10.25,0.66394 -10.25,0.66394 v 0.33638 0.33638 l 6.63912,11.77066 6.63912,11.77067 2.37507,3.75 2.37507,3.75 H 815.01419 822 Z m 25.39552,5.95026 L 867,540.64218 V 527.33127 514.02035 L 860.76852,501.51018 854.53705,489 l -0.51853,0.0309 -0.51852,0.0309 -10,12.60755 -10,12.60755 -3.75,4.96198 -3.75,4.96197 V 541.60041 559 h 0.89552 0.89552 z M 796.75,527.28375 794,526.86716 l -2.75,0.41659 -2.75,0.41659 h 5.5 5.5 z m 20.75,-1.23774 5,-0.77878 -4,-0.26526 -4,-0.26525 3.5,-0.61839 3.5,-0.61839 -4.5,-1.35544 -4.5,-1.35543 -16,-5.94124 -16,-5.94124 -11.63044,-4.97685 -11.63044,-4.97686 -17.86956,0.27356 L 721.5,499.5 l 12,4.87015 12,4.87014 19.5,8.12592 19.5,8.12592 8.5,0.58148 8.5,0.58148 5.5,0.0849 5.5,0.0848 z m -13.75,-0.76941 3.25,-0.40332 3.25,0.40332 3.25,0.40333 H 807 800.5 Z M 833.6585,507.21721 843.817,494.5 l 4.15483,-5.2227 4.15483,-5.2227 -7.81333,-3.63081 L 836.5,476.79298 818.84202,468.89649 801.18405,461 l -0.84203,0.0256 -0.84202,0.0256 -13.5,18.4354 -13.5,18.4354 -0.29412,1.38737 -0.29411,1.38736 5.29411,2.22866 5.29412,2.22867 16,5.97664 16,5.97664 3.5,1.39483 3.5,1.39482 1,0.0188 1,0.0187 z m -63.9308,-12.50338 2.22771,-3.27251 11.50163,-15.47066 11.50163,-15.47066 0.0207,-1.09813 0.0207,-1.09812 -3.75,-1.62573 -3.75,-1.62572 -8,-3.14345 -8,-3.14345 -6.92515,-2.3827 L 757.6497,444 h -0.74805 -0.74805 l -7.11651,9.0217 -7.11651,9.0217 -0.49443,1.28845 -0.49442,1.28845 2.31398,3.43985 2.31398,3.43985 7.47015,12.24935 7.47016,12.24934 2.5,0.92171 2.5,0.92171 1,0.0721 1,0.0721 z m -11.42677,0.62799 -0.57926,-1.50951 -0.65606,1.06153 -0.65607,1.06154 -18.95477,0.31056 -18.95477,0.31055 20.19009,0.13742 20.19009,0.13742 z M 751.77995,490.18496 749.5,486.45957 743.00784,475.72979 736.51568,465 H 717.75784 699 v 0.3762 0.37619 l 9.16457,13.87381 9.16456,13.8738 0.73549,0.5 0.7355,0.5 17.62989,-0.29483 17.62989,-0.29482 z m -12.65192,-31.03162 1.37197,-1.84667 6.25,-8.23993 6.25,-8.23993 V 426.91341 413 h -28 -28 v 24 24 h 20.37803 20.37803 z m 26.175,-28.29157 -4.80303,-6.38426 -1.7207,-2.48876 -1.7207,-2.48875 0.2207,9.86271 0.2207,9.86272 6,2.24398 6,2.24399 0.30303,-3.23368 0.30303,-3.23368 z m 52.85111,0.26342 17.65415,-0.62519 -5.15415,-8.72496 -5.15414,-8.72496 -33.30902,-0.025 -33.30901,-0.025 0.67853,1.25 0.67853,1.25 5.56168,8.25 5.56168,8.25 14.56881,-0.12481 14.5688,-0.12481 z m 47.62254,-44.01012 -1.49513,-2.61507 -4.24552,-7.35382 -4.24552,-7.35382 -13.34079,20.35382 -13.34078,20.35382 2.56959,4.5 2.5696,4.5 2.98815,4.76242 2.98815,4.76241 13.52369,-19.64734 13.52369,-19.64734 z m -40.51293,23.181 -2.23625,-0.43157 -2.76375,0.41792 -2.76375,0.41792 5,0.0137 5,0.0136 z M 766.17439,390.25 l 12.4926,-18.75 1.20169,-2.25 1.20169,-2.25 -27.78519,0.0288 -27.78518,0.0288 -12.77215,19.44712 -12.77216,19.44711 -0.58483,1.52406 L 698.78602,409 h 27.44789 27.44788 z M 838.69027,388.56979 852,368.63959 V 367.81979 367 H 818.99563 785.99126 L 772.49563,387.56152 759,408.12304 v 0.45196 0.45196 L 792.19027,408.76348 825.38055,408.5 Z M 662.35955,559.20871 661.23469,558.5 l -13.62913,-20.69893 -13.62914,-20.69893 -0.59178,-1.54218 -0.59179,-1.54217 -2.56692,2.01913 -2.56692,2.01914 -27.9363,-0.0879 -27.93631,-0.0879 -0.37895,0.37896 -0.37896,0.37896 4.51318,7.32015 4.51317,7.32016 -0.41786,0.41786 -0.41786,0.41786 -4.60956,-7.59257 -4.60956,-7.59258 0.0112,-0.71453 0.0112,-0.71453 6.01195,-9.5 6.01195,-9.5 14.72685,-0.5 14.72685,-0.5 0.5,-16.1686 0.5,-16.16859 -0.91548,0.16859 -0.91549,0.1686 -5.32087,-9 -5.32088,-9 -0.30647,-0.87849 -0.30647,-0.87849 -15.39519,-0.62151 -15.3952,-0.62151 -2.63646,5 -2.63646,5 -7.17551,10.88929 L 549,476.27858 V 492.63929 509 h -11 -11 v -30.10699 -30.10699 l 1.69393,0.65003 1.69394,0.65002 -1.69394,-1.87178 L 527,446.34252 v -1.13988 -1.13987 l -1.69944,0.65214 -1.69944,0.65213 1.19944,0.39981 L 526,446.16667 V 477.58333 509 H 496.44934 466.89867 L 467.19934,476.25 467.5,443.5 477.90838,427.25 488.31676,411 H 517.15838 546 v 0.78571 0.78572 h 2 2 V 411.78571 411 h 27 27 l 6.8e-4,-0.75 6.8e-4,-0.75 -26.67157,0.28251 -26.67157,0.28252 -0.8138,-1.28252 -0.81379,-1.28251 -0.0153,1.25 L 549,410 H 519.5 490 v -0.64487 -0.64486 l 8.6867,-13.60514 8.6867,-13.60513 5.28859,-8.2465 5.28859,-8.2465 56.27471,0.2465 56.27471,0.2465 -0.26582,1.29747 -0.26583,1.29747 1.45106,-0.29747 1.45105,-0.29747 14.15553,23.48985 14.15552,23.48985 -1.031,1.65091 -1.03101,1.6509 1.69025,-0.44147 1.69025,-0.44148 8.75,14.26385 8.75,14.26384 V 477.21312 509 h -23 -23 v -26 -26 h -1.40638 -1.40638 l 0.49916,1.90881 0.49917,1.9088 -1.84279,0.4752 -1.84278,0.47519 2.25,0.116 2.25,0.116 0.0789,25.25 0.0789,25.25 0.50439,-1.25 0.50439,-1.25 H 657.08333 680 v 12.31766 12.31765 l -8.25779,12.64106 -8.25779,12.64105 z m 7.70506,-13.80501 7.10934,-10.59629 0.56163,-11.40371 L 678.29721,512 H 657.1486 636 v 1.92266 1.92266 L 649.17171,535.92266 662.34343,556 h 0.30592 0.30592 z m -43.56893,-29.39671 0.61372,-0.99302 -8.22509,-8.00698 -8.22508,-8.00699 -11.07962,0.11831 -11.07961,0.11832 -2.69872,0.63168 -2.69873,0.63169 -3.95168,6.12966 -3.95169,6.12966 -1.13477,2.12034 L 572.92963,517 h 26.47617 26.47617 z m 4.05508,-27.40766 0.0508,-24.72839 -2.05077,0.56144 -2.05076,0.56143 -6.25,1.17595 -6.25,1.17594 v 16.05364 16.05363 l 7.2312,7.27978 7.2312,7.27978 1.0188,-0.34241 1.0188,-0.34241 z M 524.25,507.01701 525,507 v -30 -30 h -28 -28 v 29.91667 29.91666 l 0.99972,0.33334 0.99973,0.33333 26.25027,-0.23299 L 523.5,507.03403 Z M 546.83715,491.25 546.49858,475.5 538.18787,464.75 529.87716,454 H 529.43858 529 v 26.5 26.5 h 9.08786 9.08786 z m 130.95378,-15 -0.29093,-30.75 -7.88566,-12.72517 -7.88566,-12.72518 -0.69344,0.42857 -0.69343,0.42856 -3.86571,6.29661 -3.8657,6.29661 -8.3052,12.64864 L 636,458.79729 V 482.89864 507 h 21.04093 21.04093 z m -120.29039,-17.4433 7.78612,-12.1933 0.10667,-1.08754 0.10667,-1.08755 -8.5,-14.20596 -8.5,-14.20597 -0.5,-0.007 -0.5,-0.007 -8.75886,13.52079 -8.75885,13.52078 -0.24115,1.02936 -0.24114,1.02936 9.5,12.89305 9.5,12.89305 0.60721,0.051 0.60722,0.051 z m 64.99946,1.81835 6,-1.36331 -0.28255,-1.22853 -0.28256,-1.22853 L 614.91951,434.90234 601.90413,413 h -24.51108 -24.51108 l 0.40503,0.75 0.40503,0.75 7.30552,12.5 7.30553,12.5 1.41997,1.65776 1.41997,1.65776 14.54532,0.34224 14.54531,0.34224 1.45076,2 1.45076,2 4.46344,7.76126 4.46344,7.76127 2.21898,-0.51708 2.21897,-0.51709 z M 645.85758,434.97867 658,415.95734 v -1.19616 -1.19616 l -13.14561,-21.84447 -13.1456,-21.84446 -3.7509,5.81195 -3.75089,5.81196 -9.21104,14.3471 -9.21104,14.3471 7.7492,12.6529 7.74921,12.6529 5.4532,9.25 5.4532,9.25 h 0.76272 0.76271 z M 499.25,445.25412 489,444.93003 l -10.25,0.32409 -10.25,0.32409 h 20.5 20.5 z m 21.5,0.0296 -2.75,-0.41659 -2.75,0.41659 -2.75,0.41659 h 5.5 5.5 z m 14,-16.74289 9.25,-14.44498 V 413.54794 413 H 516.70713 489.41425 L 480.20713,427.4957 471,441.9914 V 442.4957 443 l 27.25,-0.007 27.25,-0.007 z M 560.66148,387.75 573.91161,367 l -27.70581,0.0291 -27.7058,0.0291 -5,8.17928 -5,8.17929 -8.20655,12.80735 -8.20656,12.80734 27.66224,-0.26574 27.66223,-0.26574 z m 50.05328,7.5 9.03473,-13.75 4.12525,-6.60806 L 628,368.28387 V 367.64194 367 h -24.93212 -24.93213 l -11.89907,18.75 -11.89906,18.75 -1.204,2.25 -1.20399,2.25 h 24.8752 24.8752 z"
     id="path1" />
</svg>
