<?xml version="1.0" encoding="UTF-8" standalone="no"?>
<!-- Created with Inkscape (http://www.inkscape.org/) -->

<svg
   width="48"
   height="48"
   viewBox="0 0 12.7 12.7"
   version="1.1"
   id="svg1"
   sodipodi:docname="favicon.svg"
   inkscape:version="1.3.2 (091e20ef0f, 2023-11-25)"
   inkscape:export-filename="favicon.png"
   inkscape:export-xdpi="96"
   inkscape:export-ydpi="96"
   xmlns:inkscape="http://www.inkscape.org/namespaces/inkscape"
   xmlns:sodipodi="http://sodipodi.sourceforge.net/DTD/sodipodi-0.dtd"
   xmlns="http://www.w3.org/2000/svg"
   xmlns:svg="http://www.w3.org/2000/svg">
  <sodipodi:namedview
     id="namedview1"
     pagecolor="#ffffff"
     bordercolor="#000000"
     borderopacity="0.25"
     inkscape:showpageshadow="2"
     inkscape:pageopacity="0.0"
     inkscape:pagecheckerboard="0"
     inkscape:deskcolor="#d1d1d1"
     inkscape:document-units="mm"
     inkscape:zoom="10.21843"
     inkscape:cx="0.29358719"
     inkscape:cy="19.914998"
     inkscape:window-width="2560"
     inkscape:window-height="1403"
     inkscape:window-x="0"
     inkscape:window-y="0"
     inkscape:window-maximized="1"
     inkscape:current-layer="svg1" />
  <defs
     id="defs1">
    <linearGradient
       id="swatch1"
       inkscape:swatch="solid">
      <stop
         style="stop-color:#000000;stop-opacity:1;"
         offset="0"
         id="stop1" />
    </linearGradient>
    <clipPath
       clipPathUnits="userSpaceOnUse"
       id="clipPath3">
      <path
         style="fill:none;stroke:none;stroke-width:0.533287;stroke-opacity:1"
         id="path3"
         sodipodi:type="arc"
         sodipodi:cx="6.3499999"
         sodipodi:cy="6.3499999"
         sodipodi:rx="6.3499999"
         sodipodi:ry="6.3499999"
         sodipodi:start="3.1498701"
         sodipodi:end="3.1415927"
         sodipodi:open="true"
         sodipodi:arc-type="chord"
         d="M 2.1753743e-4,6.2974387 A 6.3499999,6.3499999 0 0 1 6.3894211,1.2236557e-4 6.3499999,6.3499999 0 0 1 12.699945,6.3762809 6.3499999,6.3499999 0 0 1 6.3368592,12.699986 6.3499999,6.3499999 0 0 1 0,6.3499999 Z" />
    </clipPath>
    <clipPath
       clipPathUnits="userSpaceOnUse"
       id="clipPath4">
      <path
         style="fill:none;stroke:none;stroke-width:0.533287;stroke-opacity:1"
         id="path5"
         sodipodi:type="arc"
         sodipodi:cx="6.3499999"
         sodipodi:cy="6.3499999"
         sodipodi:rx="6.3499999"
         sodipodi:ry="6.3499999"
         sodipodi:start="3.1498701"
         sodipodi:end="3.1415927"
         sodipodi:open="true"
         sodipodi:arc-type="chord"
         d="M 2.1753743e-4,6.2974387 A 6.3499999,6.3499999 0 0 1 6.3894211,1.2236557e-4 6.3499999,6.3499999 0 0 1 12.699945,6.3762809 6.3499999,6.3499999 0 0 1 6.3368592,12.699986 6.3499999,6.3499999 0 0 1 0,6.3499999 Z" />
    </clipPath>
  </defs>
  <g
     inkscape:label="Layer 1"
     inkscape:groupmode="layer"
     id="layer1"
     style="display:inline;mix-blend-mode:normal;opacity:0" />
  <path
     style="fill:none;stroke:#dbdbdb;stroke-width:0.835;stroke-dasharray:none;stroke-opacity:1"
     d="m -0.83233362,5.9345589 c 0.004695,0.061674 0.00939,-0.2439956 0.0141064,-0.1824704 0.004695,0.061522 0.00939,-0.2436948 0.0140955,-0.1822695 0.004695,0.061379 0.00939,-0.2432433 0.0141063,-0.1819685 0.004695,0.061277 0.00939,-0.2426413 0.0140955,-0.1814675 0.004695,0.061125 0.00939,-0.2418391 0.0141064,-0.180815 0.004695,0.061026 0.00939,-0.2408867 0.0140955,-0.1799628 0.004695,0.060926 0.00939,-0.2397331 0.0140955,-0.1789605 0.004695,0.060774 0.00939,-0.2384798 0.0141063,-0.1778062 0.004695,0.060673 0.00939,-0.2370254 0.0140955,-0.1765032 0.004695,0.060572 0.00939,-0.235371 0.0141063,-0.1749488 0.004695,0.060369 0.00939,-0.2336661 0.0140955,-0.1733944 0.004695,0.060319 0.00939,-0.2317005 0.0141064,-0.1715388 0.004695,0.060167 0.00939,-0.2296341 0.0140955,-0.1695936 0.004695,0.060043 0.00939,-0.2274131 0.0141063,-0.1674918 0.004695,0.059926 0.00939,-0.2250314 0.0140955,-0.1652363 0.004695,0.059799 0.00939,-0.222509 0.0140955,-0.1628336 0.004695,0.059673 0.00939,-0.2198419 0.0141064,-0.1602872 0.004695,0.05955 0.00939,-0.2170336 0.0140955,-0.1576042 0.004695,0.059429 0.00939,-0.21408 0.0141063,-0.1547762 0.004695,0.059303 0.00939,-0.2110014 0.0140955,-0.1518225 0.004695,0.059183 0.00939,-0.2077874 0.0141063,-0.148729 0.004695,0.059058 0.00939,-0.2044477 0.0140955,-0.1455148 0.004695,0.058933 0.00939,-0.2009876 0.0141064,-0.1421752 0.004695,0.058808 0.00939,-0.1974075 0.0140955,-0.1387203 0.004695,0.058688 0.00939,-0.1937071 0.0140955,-0.1351452 0.004695,0.058567 0.00939,-0.1899012 0.0141064,-0.1314596 0.004695,0.058442 0.00939,-0.1859902 0.0140955,-0.127674 0.004695,0.058316 0.00939,-0.1819736 0.0141063,-0.1237828 0.004695,0.058196 0.00939,-0.1778619 0.0140955,-0.1197914 0.004695,0.058071 0.00939,-0.17366 0.0141063,-0.1157147 0.004695,0.057949 0.00939,-0.1693677 0.0140955,-0.1115429 0.004695,0.05782 0.00939,-0.16499537 0.0141064,-0.10729587 0.004695,0.0577 0.00939,-0.1605476 0.0140955,-0.1029686 0.004695,0.057575 0.00939,-0.1560246 0.0140955,-0.098571 0.004695,0.057454 0.00939,-0.1514315 0.0141064,-0.094102 0.004695,0.057329 0.00939,-0.1467784 0.0140955,-0.089575 0.004695,0.057207 0.00939,-0.14206982 0.0141063,-0.084987 0.004706,0.057082 0.00939,-0.13731633 0.0140922,-0.0803594 0.004706,0.0569617 0.00939,-0.13250758 0.0141064,-0.0756698 0.004706,0.056836 0.00939,-0.12766377 0.0140922,-0.0709524 0.004706,0.0567112 0.00939,-0.12278501 0.0141063,-0.066198 0.004706,0.0565914 0.00939,-0.11787601 0.0140911,-0.0614147 0.004706,0.0564656 0.00939,-0.11294695 0.0140922,-0.0566014 0.004716,0.0563409 0.009412,-0.10799781 0.0141075,-0.0517831 0.004706,0.0562211 0.00939,-0.10303362 0.0140911,-0.0469389 0.004706,0.0560953 0.009412,-0.0980702 0.0141063,-0.0421007 0.004706,0.0559745 0.00939,-0.0931002 0.0140911,-0.0372515 0.004706,0.0558488 0.00939,-0.0881352 0.0141063,-0.0324122 0.004706,0.055723 0.00939,-0.0831832 0.0140911,-0.0275779 0.004706,0.0555982 0.00939,-0.0782432 0.0141064,-0.0227647 0.004706,0.0554784 0.00939,-0.0733301 0.0140922,-0.0179714 0.004706,0.0553537 0.00939,-0.06844 0.01409104,-0.013208 0.0047163,0.0552329 0.0094118,-0.0635757 0.01410745,-0.008464 0.0047059,0.0551081 0.0093902,-0.0587585 0.01409219,-0.003783 0.0047057,0.0549813 0.0094115,-0.0539791 0.01410419,8.8281e-4 0.0047057,0.0548615 0.0093897,-0.0492457 0.01409219,0.0055 0.0047057,0.0547368 0.0094115,-0.0445672 0.01410637,0.0100427 0.0047057,0.054615 0.0093896,-0.0399435 0.01409218,0.0145456 0.00470572,0.0544893 0.00938966,-0.0353908 0.0141074693,0.0189795 0.004705721,0.0543644 0.009389651,-0.030898 0.0140910907,0.0233457 0.0047057,0.0542407 0.0093897,-0.026479 0.01409218,0.0276379 0.0047167,0.0541199 0.0094115,-0.0221429 0.01410637,0.0318563 0.0047057,0.0539991 0.0093897,-0.0178806 0.01409219,0.0359928 0.0047057,0.0538733 0.0094115,-0.0137042 0.01410418,0.0400434 0.0047058,0.0537476 0.0093897,-0.009622 0.01409219,0.0440062 0.0047057,0.0536228 0.0094115,-0.00563 0.01410637,0.0478662 0.0047058,0.053502 0.0093896,-0.001747 0.01409218,0.0516374 0.004706,0.0533762 0.00939,0.002047 0.0141042,0.0552977 0.004706,0.0532575 0.00939,0.005729 0.0140922,0.0588633 0.004706,0.0531307 0.00939,0.009293 0.0140922,0.062313 0.004716,0.0530048 0.009412,0.0127618 0.0141063,0.0656469 0.004706,0.0528861 0.00939,0.0161058 0.0140911,0.0688662 0.004706,0.0527663 0.009412,0.019335 0.0141063,0.0719695 0.004706,0.052641 0.00939,0.022439 0.0140922,0.074954 0.004706,0.052515 0.009412,0.025412 0.0141075,0.077807 0.004706,0.052394 0.00939,0.028267 0.0140922,0.080534 0.004706,0.052268 0.00939,0.030987 0.0141042,0.083132 0.004706,0.052149 0.00939,0.03358 0.0140922,0.0856 0.004706,0.052024 0.00939,0.036032 0.0140922,0.087937 0.004716,0.051898 0.009412,0.03835 0.0141064,0.090128 0.004706,0.051774 0.00939,0.040536 0.0140922,0.092188 0.004706,0.051652 0.009412,0.042582 0.0141041,0.094109 0.004706,0.051526 0.00939,0.044481 0.0140922,0.095889 0.004706,0.051406 0.009412,0.046241 0.0141064,0.097527 0.004706,0.051281 0.00939,0.047861 0.014091,0.099023 0.004706,0.051156 0.00939,0.049341 0.0141053,0.100376 0.004706,0.051036 0.00939,0.050675 0.014091,0.1015845 0.004706,0.050915 0.00939,0.051868 0.0140911,0.1026525 0.004716,0.050791 0.009412,0.052911 0.0141053,0.1035754 0.004706,0.050665 0.00939,0.053814 0.014091,0.1043573 0.004706,0.050539 0.009412,0.05457 0.0141075,0.1049843 0.004706,0.050419 0.00939,0.055188 0.0140922,0.1054807 0.004706,0.050293 0.009412,0.055659 0.0141042,0.1058265 0.004706,0.050173 0.00939,0.055989 0.014091,0.1060373 0.004706,0.050046 0.00939,0.056175 0.0141063,0.1060972 0.004695,0.049928 0.009401,0.05623 0.0140911,0.1060273 0.004695,0.049802 0.0094,0.05614 0.014091,0.1058165 0.004728,0.049676 0.009412,0.055909 0.0141075,0.1054656 0.004695,0.049552 0.009401,0.055549 0.0140922,0.1049792 0.004695,0.049432 0.009412,0.055057 0.0141041,0.1043678 0.004695,0.049307 0.009401,0.054426 0.0140922,0.1036102 0.004695,0.049189 0.009412,0.053678 0.0141042,0.1027375 0.004695,0.049063 0.0094,0.052796 0.014091,0.1017356 0.004695,0.048936 0.009401,0.051787 0.0141053,0.1006012 0.004695,0.048809 0.0094,0.050661 0.014091,0.099353 0.004695,0.048684 0.009401,0.049417 0.014091,0.097984 0.004728,0.048558 0.009412,0.048054 0.0141064,0.096495 0.004695,0.04844 0.009401,0.046583 0.0140922,0.09492 0.004728,0.04829 0.009412,0.044977 0.0141042,0.093165 0.004695,0.048189 0.0094,0.043321 0.0140922,0.091411 0.004695,0.048037 0.009412,0.041522 0.0141041,0.089454 0.004695,0.047936 0.009401,0.039613 0.014091,0.087449 0.004695,0.047836 0.009401,0.037655 0.0141064,0.085344 0.004695,0.047684 0.0094,0.035552 0.0140922,0.083136 0.004695,0.047584 0.0094,0.033392 0.014091,0.080833 0.004728,0.047482 0.009412,0.03119 0.0141041,0.078471 0.004695,0.047339 0.0094,0.028836 0.0140922,0.076066 0.004728,0.047187 0.009412,0.026422 0.0141041,0.073511 0.004695,0.047087 0.009401,0.023918 0.0140922,0.070904 0.004695,0.046936 0.009412,0.021414 0.0141041,0.068246 0.004695,0.046835 0.009401,0.018806 0.014091,0.06549 0.004695,0.046734 0.0094,0.016142 0.0141075,0.062732 0.004695,0.046633 0.009401,0.013443 0.014091,0.059918 0.004695,0.046483 0.0094,0.010677 0.014091,0.057007 0.004728,0.046331 0.009412,0.00789 0.0141053,0.054108 0.004695,0.046229 0.0094,0.00505 0.014091,0.051089 0.004728,0.046128 0.009412,0.00219 0.0141053,0.048138 0.004695,0.045978 0.009401,-7.615e-4 0.014091,0.045078 0.004695,0.045877 0.009412,-0.00363 0.0141075,0.042068 0.004695,0.045734 0.0094,-0.00664 0.014091,0.038959 0.00469,0.045582 0.0094,-0.00962 0.014105,0.035855 0.00469,0.045481 0.0094,-0.012594 0.014091,0.032796 0.00469,0.045331 0.0094,-0.015594 0.014092,0.029635 0.00473,0.045229 0.00941,-0.018555 0.014104,0.026574 0.00469,0.045129 0.0094,-0.021564 0.014091,0.023413 0.00473,0.045028 0.00941,-0.024472 0.014105,0.020354 0.0047,0.044877 0.0094,-0.027482 0.014091,0.017301 0.0047,0.044725 0.00941,-0.030441 0.014107,0.014191 0.0047,0.044624 0.0094,-0.033342 0.014091,0.01113 0.0047,0.044472 0.0094,-0.036252 0.014105,0.00814 0.0047,0.044371 0.0094,-0.039108 0.014091,0.00514 0.0047,0.044229 0.0094,-0.041976 0.014092,0.00219 0.00473,0.044128 0.00941,-0.044725 0.014104,-7.029e-4 0.0047,0.043976 0.0094,-0.047482 0.014091,-0.00363 0.00473,0.043876 0.00941,-0.050189 0.014106,-0.00647 0.0047,0.043775 0.0094,-0.052796 0.014092,-0.00916 0.0047,0.043624 0.00941,-0.055461 0.014104,-0.011929 0.0047,0.043472 0.0094,-0.057965 0.014092,-0.014594 0.0047,0.043371 0.0094,-0.06047 0.014104,-0.0172 0.0047,0.043271 0.0094,-0.062875 0.014091,-0.019756 0.0047,0.043169 0.0094,-0.065187 0.014092,-0.022161 0.00473,0.043019 0.00941,-0.067491 0.014104,-0.024624 0.0047,0.042917 0.0094,-0.069651 0.014091,-0.026877 0.00473,0.042765 0.00941,-0.071803 0.014105,-0.02918 0.0047,0.042664 0.0094,-0.073813 0.014091,-0.03129 0.0047,0.042523 0.00941,-0.075763 0.014104,-0.0334 0.0047,0.042421 0.0094,-0.077621 0.014092,-0.035352 0.0047,0.042271 0.0094,-0.07943 0.014104,-0.037301 0.0047,0.042169 0.0094,-0.081085 0.014092,-0.039059 0.0047,0.042018 0.0094,-0.08269 0.014107,-0.040816 0.0047,0.041917 0.0094,-0.084189 0.014091,-0.042371 0.0047,0.041765 0.0094,-0.085593 0.014091,-0.043976 0.00473,0.041664 0.00941,-0.086848 0.014105,-0.045331 0.0047,0.041513 0.0094,-0.088101 0.014091,-0.046684 0.0047,0.041413 0.00941,-0.089202 0.014104,-0.047936 0.0047,0.041319 0.0094,-0.090157 0.014092,-0.048987 0.0047,0.041168 0.0094,-0.09106 0.014104,-0.050046 0.0047,0.041017 0.0094,-0.091862 0.014092,-0.050946 0.0047,0.040915 0.0094,-0.092565 0.014104,-0.051745 0.0047,0.040766 0.0094,-0.093115 0.014091,-0.052451 0.0047,0.040665 0.0094,-0.093567 0.014092,-0.053048 0.00473,0.040564 0.00941,-0.093917 0.014104,-0.053501 0.0047,0.040412 0.0094,-0.094219 0.014092,-0.053906 0.0047,0.04027 0.00941,-0.094369 0.014104,-0.054208 0.0047,0.040219 0.0094,-0.094368 0.014091,-0.054301 0.0047,0.040016 0.0094,-0.094368 0.014106,-0.054409 0.0047,0.039915 0.0094,-0.094169 0.014092,-0.054359 0.0047,0.039765 0.0094,-0.093917 0.014104,-0.054208 0.0047,0.039664 0.0094,-0.093516 0.014091,-0.054006 0.0047,0.039563 0.0094,-0.093014 0.014092,-0.053603 0.00473,0.039462 0.00941,-0.092465 0.014104,-0.053148 0.0047,0.039311 0.0094,-0.09176 0.014092,-0.052603 0.0047,0.03921 0.00941,-0.091009 0.014106,-0.051946 0.0047,0.039059 0.0094,-0.090106 0.014091,-0.051198 0.0047,0.038958 0.0094,-0.089154 0.014104,-0.050341 0.0047,0.038815 0.0094,-0.088152 0.014092,-0.049442 0.0047,0.038715 0.0094,-0.086946 0.014104,-0.048391 0.0047,0.038563 0.0094,-0.085744 0.014091,-0.047288 0.0047,0.038411 0.0094,-0.084452 0.014092,-0.046128 0.00473,0.03831 0.00941,-0.083018 0.014104,-0.044818 0.0047,0.0382 0.0094,-0.081538 0.014092,-0.043464 0.0047,0.038073 0.00941,-0.079983 0.014107,-0.042034 0.0047,0.037949 0.0094,-0.078353 0.014091,-0.040522 0.0047,0.037831 0.0094,-0.076646 0.014104,-0.038942 0.0047,0.037705 0.0094,-0.074873 0.014092,-0.037294 0.0047,0.037579 0.0094,-0.07304 0.014104,-0.035577 0.0047,0.037453 0.0094,-0.07114 0.014092,-0.033804 0.0047,0.037335 0.0094,-0.06918 0.014091,-0.031964 0.00473,0.03721 0.00941,-0.067171 0.014106,-0.030089 0.0047,0.037092 0.0094,-0.065103 0.014091,-0.028138 0.0047,0.036965 0.00941,-0.063002 0.014105,-0.026154 0.0047,0.036838 0.0094,-0.060842 0.014091,-0.024128 0.0047,0.03672 0.0094,-0.058647 0.014105,-0.022051 0.0047,0.036603 0.0094,-0.056411 0.014091,-0.019941 0.0047,0.036469 0.0094,-0.05415 0.014105,-0.017806 0.0047,0.036353 0.0094,-0.051855 0.014092,-0.015629 0.0047,0.036226 0.0094,-0.049542 0.014092,-0.013443 0.00473,0.0361 0.00941,-0.047196 0.014105,-0.011222 0.0047,0.035973 0.0094,-0.044843 0.014091,-0.00898 0.0047,0.035855 0.00941,-0.042479 0.014105,-0.00672 0.0047,0.035729 0.0094,-0.040101 0.014091,-0.00446 0.0047,0.035602 0.00941,-0.037714 0.014105,-0.00228 0.0047,0.035485 0.0094,-0.035327 0.014091,3.53e-5 0.0047,0.03536 0.0094,-0.032947 0.014106,0.00228 0.0047,0.035242 0.0094,-0.030567 0.014092,0.00455 0.0047,0.035116 0.0094,-0.028206 0.014091,0.0068 0.00473,0.03499 0.00941,-0.025861 0.014104,0.009 0.0047,0.034872 0.0094,-0.023522 0.014092,0.011222 0.0047,0.034737 0.00941,-0.02122 0.014104,0.013401 0.0047,0.034619 0.0094,-0.018933 0.014092,0.015562 0.0047,0.034493 0.00941,-0.01668 0.014104,0.017697 0.0047,0.034376 0.0094,-0.01446 0.014091,0.019789 0.0047,0.03425 0.0094,-0.012274 0.014105,0.021848 0.0047,0.034124 0.0094,-0.010129 0.014091,0.023867 0.0047,0.034006 0.0094,-0.00798 0.014091,0.025852 0.00473,0.03388 0.00941,-0.00596 0.014105,0.027775 0.0047,0.033754 0.0094,-0.00397 0.014091,0.029652 0.0047,0.033628 0.00941,-0.00202 0.014104,0.031476 0.0047,0.033501 0.0094,-1.403e-4 0.014092,0.03324 0.0047,0.033384 0.00941,0.00169 0.014106,0.034956 0.0047,0.033257 0.0094,0.00346 0.014091,0.036603 0.0047,0.033141 0.0094,0.00514 0.014105,0.038175 0.0047,0.033015 0.0094,0.0068 0.014091,0.039689 0.0047,0.032889 0.0094,0.00831 0.014091,0.041126 0.00473,0.032771 0.00941,0.00985 0.014105,0.042496 0.0047,0.032644 0.0094,0.011265 0.014091,0.043809 0.0047,0.032492 0.00941,0.012585 0.014106,0.044977 0.0047,0.032391 0.0094,0.013889 0.014092,0.046128 0.0047,0.03229 0.00941,0.01504 0.014104,0.047188 0.0047,0.032138 0.0094,0.01615 0.014091,0.048189 0.0047,0.031988 0.0094,0.0171 0.014105,0.049037 0.0047,0.031888 0.0094,0.01805 0.014091,0.049844 0.0047,0.031737 0.0094,0.018857 0.014092,0.050542 0.00473,0.031644 0.00941,0.019606 0.014104,0.051148 0.0047,0.031543 0.0094,0.020312 0.014091,0.051694 0.0047,0.031442 0.00941,0.020857 0.014107,0.052148 0.0047,0.03129 0.0094,0.021312 0.014092,0.052501 0.0047,0.031139 0.00941,0.021714 0.014104,0.052754 0.0047,0.031038 0.0094,0.021967 0.014091,0.052905 0.0047,0.030937 0.0094,0.022161 0.014105,0.052947 0.0047,0.030837 0.0094,0.022313 0.014091,0.053005 0.0047,0.030635 0.0094,0.022262 0.014092,0.052805 0.00473,0.030534 0.00941,0.022211 0.014107,0.052653 0.0047,0.030442 0.0094,0.022009 0.014091,0.052299 0.0047,0.030332 0.00941,0.021765 0.014104,0.051946 0.0047,0.03019 0.0094,0.021414 0.014092,0.051441 0.0047,0.030038 0.00941,0.020958 0.014104,0.050896 0.0047,0.029886 0.0094,0.020361 0.014091,0.050189 0.0047,0.029785 0.0094,0.019757 0.014105,0.049442 0.0047,0.029685 0.0094,0.01905 0.014091,0.048592 0.0047,0.029584 0.0094,0.018251 0.014092,0.047685 0.00473,0.029432 0.00941,0.017393 0.014104,0.046684 0.0047,0.029331 0.0094,0.016393 0.014091,0.045582 0.00473,0.029189 0.00941,0.015342 0.014105,0.04443 0.0047,0.029028 0.0094,0.014191 0.014091,0.04312 0.0047,0.028987 0.00941,0.013039 0.014104,0.041816 0.0047,0.028836 0.0094,0.011736 0.014092,0.040412 0.0047,0.028734 0.0094,0.010383 0.014108,0.038958 0.0047,0.028584 0.0094,0.00897 0.014091,0.037411 0.0047,0.028433 0.0094,0.00747 0.014092,0.035805 0.00473,0.028282 0.00941,0.00588 0.014104,0.034099 0.0047,0.02818 0.0094,0.0043 0.014091,0.032341 0.00473,0.028079 0.00941,0.00262 0.014105,0.030585 0.0047,0.027978 0.0094,8.407e-4 0.014091,0.028734 0.0047,0.027834 0.00941,-8.407e-4 0.014104,0.026826 0.0047,0.027674 0.0094,-0.00278 0.014092,0.024877 0.0047,0.027574 0.0094,-0.00463 0.014104,0.022867 0.0047,0.027423 0.0094,-0.00655 0.014091,0.020806 0.0047,0.027332 0.0094,-0.00846 0.014091,0.018756 0.00473,0.027231 0.00941,-0.010484 0.014105,0.016646 0.0047,0.027079 0.0094,-0.012485 0.014091,0.014443 0.00473,0.026978 0.00941,-0.014494 0.014105,0.012341 0.0047,0.026826 0.0094,-0.016595 0.014091,0.010129 0.0047,0.026726 0.00941,-0.018705 0.014107,0.00789 0.0047,0.026624 0.0094,-0.020806 0.014091,0.00572 0.0047,0.026473 0.0094,-0.022918 0.014105,0.00337 0.0047,0.026371 0.0094,-0.02502 0.014091,0.00127 0.0047,0.026229 0.0094,-0.027231 0.014091,-0.0011 0.00473,0.026071 0.00941,-0.029332 0.014105,-0.00337 0.0047,0.025978 0.0094,-0.031493 0.014091,-0.00563 0.00473,0.025827 0.00941,-0.033644 0.014105,-0.00789 0.0047,0.025726 0.0094,-0.035745 0.014091,-0.010129 0.0047,0.025625 0.00941,-0.037807 0.014105,-0.012341 0.0047,0.025473 0.0094,-0.039915 0.014091,-0.014544 0.0047,0.025371 0.0094,-0.041976 0.014105,-0.016697 0.0047,0.02522 0.0094,-0.044027 0.014091,-0.018907 0.0047,0.025128 0.0094,-0.045978 0.014091,-0.021009 0.00473,0.025019 0.00941,-0.047936 0.014105,-0.023068 0.0047,0.024877 0.0094,-0.049896 0.014091,-0.025169 0.00473,0.024767 0.00941,-0.051753 0.014106,-0.02713 0.0047,0.024624 0.0094,-0.053653 0.014091,-0.02913 0.0047,0.024523 0.00941,-0.05541 0.014105,-0.031038 0.0047,0.024371 0.0094,-0.057159 0.014091,-0.032897 0.0047,0.02427 0.0094,-0.058813 0.014104,-0.034695 0.0047,0.024119 0.0094,-0.06042 0.014092,-0.036453 0.0047,0.024019 0.0094,-0.061976 0.014091,-0.038107 0.00473,0.023868 0.00941,-0.06348 0.014105,-0.039764 0.0047,0.023767 0.0094,-0.064884 0.014091,-0.04127 0.00473,0.023624 0.00941,-0.066288 0.014104,-0.042765 0.0047,0.023522 0.0094,-0.067541 0.014092,-0.044128 0.0047,0.023362 0.00941,-0.068744 0.014104,-0.045481 0.0047,0.02327 0.0094,-0.069853 0.014091,-0.046735 0.0047,0.023169 0.0094,-0.070853 0.014105,-0.047835 0.0047,0.023017 0.0094,-0.071854 0.014091,-0.048936 0.0047,0.022917 0.0094,-0.072661 0.014105,-0.049895 0.0047,0.022766 0.0094,-0.07346 0.014091,-0.050795 0.0047,0.022615 0.0094,-0.074106 0.014091,-0.051593 0.00473,0.022514 0.00941,-0.074712 0.014105,-0.052299 0.0047,0.022413 0.0094,-0.075166 0.014091,-0.052897 0.0047,0.022312 0.00941,-0.075519 0.014105,-0.053349 0.0047,0.02216 0.0094,-0.075863 0.014091,-0.053805 0.0047,0.022009 0.0094,-0.076015 0.014107,-0.054108 0.0047,0.021907 0.0094,-0.076066 0.014091,-0.054309 0.0047,0.021816 0.0094,-0.076066 0.014105,-0.0544 0.0047,0.021664 0.0094,-0.075915 0.014091,-0.054359 0.0047,0.021513 0.0094,-0.075712 0.014091,-0.05431 0.00473,0.021414 0.00941,-0.075317 0.014105,-0.054057 0.0047,0.021312 0.0094,-0.074864 0.014091,-0.053704 0.0047,0.021161 0.00941,-0.074359 0.014104,-0.053299 0.0047,0.021059 0.0094,-0.073662 0.014092,-0.052753 0.0047,0.020907 0.0094,-0.072904 0.014104,-0.052098 0.0047,0.020806 0.0094,-0.072056 0.014092,-0.051399 0.0047,0.020706 0.0094,-0.071055 0.014104,-0.050492 0.0047,0.020555 0.0094,-0.069946 0.014091,-0.049542 0.0047,0.020463 0.0094,-0.068744 0.014092,-0.04844 0.00473,0.020261 0.00941,-0.067491 0.014104,-0.047339 0.0047,0.02021 0.0094,-0.066087 0.014091,-0.046028 0.0047,0.020058 0.00941,-0.06459 0.014106,-0.044658 0.0047,0.019933 0.0094,-0.062994 0.014091,-0.043186 0.0047,0.019815 0.0094,-0.061303 0.014105,-0.041613 0.0047,0.019689 0.0094,-0.059513 0.014091,-0.039949 0.0047,0.019564 0.0094,-0.05763 0.014105,-0.038183 0.0047,0.019437 0.0094,-0.055646 0.014091,-0.036336 0.0047,0.019319 0.0094,-0.053585 0.014091,-0.034385 0.00473,0.019193 0.00941,-0.051424 0.014105,-0.032358 0.0047,0.019067 0.0094,-0.049189 0.014091,-0.030239 0.0047,0.018949 0.00941,-0.046861 0.014105,-0.028037 0.0047,0.018823 0.0094,-0.044455 0.014091,-0.025759 0.0047,0.018698 0.0094,-0.041976 0.014105,-0.023404 0.0047,0.018571 0.0094,-0.039428 0.014091,-0.020975 0.0047,0.018453 0.0094,-0.036796 0.014104,-0.018471 0.0047,0.018327 0.0094,-0.034116 0.014092,-0.015906 0.0047,0.018209 0.0094,-0.031349 0.014091,-0.013275 0.00473,0.018084 0.00941,-0.028533 0.014105,-0.010576 0.0047,0.017958 0.0094,-0.025667 0.014092,-0.00781 0.0047,0.017832 0.00941,-0.022742 0.014104,-0.00505 0.0047,0.017714 0.0094,-0.019764 0.014091,-0.00219 0.0047,0.017587 0.0094,-0.016747 0.014105,7.205e-4 0.0047,0.017461 0.0094,-0.013686 0.014091,0.00363 0.0047,0.017343 0.0094,-0.010585 0.014106,0.00664 0.0047,0.017217 0.0094,-0.00747 0.014091,0.00963 0.0047,0.017092 0.0094,-0.0043 0.014091,0.012669 0.00473,0.016967 0.00941,-0.0011 0.014105,0.015721 0.0047,0.016848 0.0094,0.00211 0.014091,0.018806 0.0047,0.016722 0.00941,0.00531 0.014105,0.0219 0.0047,0.016595 0.0094,0.00851 0.014091,0.025002 0.0047,0.016477 0.0094,0.011754 0.014105,0.028105 0.0047,0.016351 0.0094,0.01499 0.014091,0.031214 0.0047,0.016225 0.0094,0.018209 0.014105,0.034316 0.0047,0.016108 0.0094,0.021439 0.014091,0.03742 0.0047,0.015981 0.0094,0.024641 0.014091,0.040505 0.00473,0.015863 0.00941,0.027826 0.014105,0.043565 0.0047,0.015738 0.0094,0.030996 0.014091,0.046608 0.0047,0.015612 0.00941,0.034141 0.014105,0.049634 0.0047,0.015486 0.0094,0.037243 0.014091,0.052611 0.0047,0.015369 0.00941,0.040328 0.014105,0.055571 0.0047,0.015242 0.0094,0.043321 0.014091,0.05847 0.0047,0.015091 0.0094,0.046331 0.014105,0.061328 0.0047,0.01499 0.0094,0.04924 0.014091,0.064137 0.0047,0.014847 0.0094,0.052149 0.014091,0.066894 0.00473,0.014745 0.00941,0.054956 0.014105,0.06955 0.0047,0.014644 0.0094,0.057713 0.014091,0.072258 0.0047,0.014494 0.00941,0.060369 0.014105,0.074763 0.0047,0.014393 0.0094,0.062977 0.014091,0.077268 0.0047,0.014241 0.00941,0.065531 0.014105,0.079681 0.0047,0.014089 0.0094,0.067994 0.014091,0.081985 0.0047,0.01399 0.0094,0.07035 0.014104,0.08424 0.0047,0.013889 0.0094,0.072661 0.014092,0.086446 0.0047,0.013737 0.0094,0.074814 0.014091,0.088451 0.00473,0.013636 0.00941,0.076922 0.014105,0.090457 0.0047,0.013494 0.0094,0.078874 0.014091,0.092264 0.0047,0.013383 0.00941,0.080833 0.014104,0.094068 0.0047,0.013283 0.0094,0.082589 0.014092,0.095724 0.0047,0.01314 0.00941,0.084241 0.014104,0.097278 0.0047,0.012988 0.0094,0.085744 0.014091,0.098683 0.0047,0.012887 0.0094,0.087198 0.014105,0.099984 0.0047,0.012737 0.0094,0.088502 0.014091,0.101189 0.0047,0.012637 0.0094,0.089706 0.014092,0.1022408 0.00473,0.012535 0.00941,0.09076 0.014104,0.103194 0.0047,0.012383 0.0094,0.091711 0.014091,0.103997 0.0047,0.012282 0.00941,0.092515 0.014105,0.1046979 0.0047,0.012131 0.0094,0.093216 0.014091,0.1052497 0.0047,0.011988 0.00941,0.093718 0.014105,0.1056513 0.0047,0.011887 0.0094,0.094119 0.014091,0.1059021 0.0047,0.011786 0.0094,0.094418 0.014105,0.106102 0.0047,0.011678 0.0094,0.09452 0.014091,0.1061028 0.0047,0.011534 0.0094,0.094519 0.014091,0.1059516 0.00473,0.011382 0.00941,0.094367 0.014105,0.1056513 0.0047,0.011279 0.0094,0.09407 0.014091,0.1052512 0.0047,0.011179 0.00941,0.09362 0.014105,0.1046982 0.0047,0.01103 0.0094,0.093071 0.014091,0.1039465 0.0047,0.010931 0.00941,0.092363 0.014105,0.1031431 0.0047,0.010831 0.0094,0.091464 0.014091,0.1021418 0.0047,0.010681 0.0094,0.090456 0.014104,0.100987 0.0047,0.010581 0.0094,0.089298 0.014092,0.099739 0.0047,0.010421 0.0094,0.087991 0.014091,0.098272 0.00473,0.010331 0.00941,0.086543 0.014105,0.096725 0.0047,0.010181 0.0094,0.084996 0.014091,0.095028 0.0047,0.010082 0.00941,0.083229 0.014104,0.093171 0.0047,0.00998 0.0094,0.081382 0.014092,0.091205 0.0047,0.00978 0.00941,0.079327 0.014104,0.088999 0.0047,0.00978 0.0094,0.07721 0.014092,0.086803 0.0047,0.00958 0.0094,0.074965 0.014105,0.084387 0.0047,0.00948 0.0094,0.072518 0.014091,0.081832 0.0047,0.00938 0.0094,0.069993 0.014091,0.079227 0.00473,0.00918 0.00941,0.067288 0.014105,0.076372 0.0047,0.00908 0.0094,0.064523 0.014091,0.073457 0.00473,0.00898 0.00941,0.061619 0.014105,0.070453 0.0047,0.00888 0.0094,0.058574 0.014091,0.067288 0.0047,0.00868 0.00941,0.0554 0.014105,0.063984 0.0047,0.00858 0.0094,0.052145 0.014091,0.06058 0.0047,0.00848 0.0094,0.048801 0.014105,0.057107 0.0047,0.00838 0.0094,0.045278 0.014091,0.053493 0.0047,0.00818 0.0094,0.041654 0.014091,0.049739 0.00473,0.00808 0.00941,0.038011 0.014105,0.045937 0.0047,0.00798 0.0094,0.034198 0.014091,0.042064 0.00473,0.00778 0.00941,0.030285 0.014105,0.038011 0.0047,0.00778 0.0094,0.026382 0.014091,0.033948 0.0047,0.00758 0.00941,0.02231 0.014105,0.029726 0.0047,0.00749 0.0094,0.018197 0.014092,0.025524 0.0047,0.00729 0.0094,0.013945 0.014104,0.021162 0.0047,0.00729 0.0094,0.00968 0.014091,0.01681 0.0047,0.00709 0.0094,0.00529 0.014092,0.012288 0.00473,0.00699 0.00941,9.243e-4 0.014104,0.00778 0.0047,0.00689 0.0094,-0.0035 0.014092,0.0032 0.00473,0.00679 0.00941,-0.00808 0.014104,-0.0014 0.0047,0.00669 0.0094,-0.012588 0.014091,-0.00619 0.0047,0.00649 0.00941,-0.017188 0.014105,-0.010831 0.0047,0.00639 0.0094,-0.02181 0.014091,-0.015601 0.0047,0.00629 0.0094,-0.026482 0.014105,-0.020353 0.0047,0.00619 0.0094,-0.031133 0.014091,-0.025174 0.0047,0.00609 0.0094,-0.035855 0.014091,-0.029976 0.00473,0.00589 0.00941,-0.040567 0.014105,-0.034846 0.0047,0.00569 0.0094,-0.045278 0.014091,-0.039668 0.00473,0.00569 0.00941,-0.049989 0.014105,-0.044519 0.0047,0.00559 0.0094,-0.054711 0.014091,-0.049351 0.0047,0.00539 0.00941,-0.059472 0.014105,-0.054192 0.0047,0.00529 0.0094,-0.064124 0.014091,-0.059023 0.0047,0.00509 0.0094,-0.068795 0.014105,-0.063774 0.0047,0.00499 0.0094,-0.073457 0.014091,-0.068596 0.0047,0.00489 0.0094,-0.078068 0.014091,-0.073317 0.00473,0.00469 0.00941,-0.08264 0.014105,-0.078019 0.0047,0.00459 0.0094,-0.087191 0.014091,-0.08269 0.00473,0.00459 0.00941,-0.091663 0.014105,-0.087291 0.0047,0.0044 0.0094,-0.096076 0.014091,-0.091813 0.0047,0.0042 0.00941,-0.1004869 0.014105,-0.096375 0.0047,0.0041 0.0094,-0.104799 0.014091,-0.1007863 0.0047,0.004 0.0094,-0.1090124 0.014105,-0.1051004 0.0047,0.0039 0.0094,-0.1132227 0.014091,-0.1094616 0.0047,0.0038 0.0094,-0.1172864 0.014091,-0.113625 0.00473,0.0036 0.00941,-0.1212961 0.014105,-0.1177855 0.0047,0.0035 0.0094,-0.125206 0.014091,-0.1217961 0.00473,0.0034 0.00941,-0.1290182 0.014105,-0.1257082 0.0047,0.0033 0.0094,-0.1327304 0.014091,-0.129621 0.0047,0.0032 0.00941,-0.1363379 0.014105,-0.1332794 0.0047,0.003 0.0094,-0.1398485 0.014091,-0.1369897 0.0047,0.003 0.0094,-0.1432083 0.014105,-0.1404503 0.0047,0.0028 0.0094,-0.1465184 0.014092,-0.1438592 0.0047,0.0026 0.0094,-0.1496791 0.014104,-0.1471209 0.0047,0.00253 0.0094,-0.1526856 0.014092,-0.1502787 0.0047,0.00245 0.0094,-0.1555935 0.014091,-0.153337 0.00473,0.00228 0.00941,-0.1583511 0.014104,-0.1561956 0.0047,0.00219 0.0094,-0.1610083 0.014092,-0.158953 0.0047,0.00202 0.00941,-0.1635161 0.014104,-0.1616103 0.0047,0.00194 0.0094,-0.1658223 0.014091,-0.164018 0.0047,0.00177 0.0094,-0.1680787 0.014105,-0.1664242 0.0047,0.00169 0.0094,-0.1700845 0.014091,-0.16853 0.0047,0.00152 0.0094,-0.1720399 0.014105,-0.170636 0.0047,0.00143 0.0094,-0.1737448 0.014091,-0.1724418 0.0047,0.00135 0.0094,-0.1753497 0.014091,-0.1741964 0.00473,0.00118 0.00941,-0.1768033 0.014105,-0.1757508 0.0047,0.0011 0.0094,-0.1781071 0.014091,-0.1771546 0.0047,9.246e-4 0.00941,-0.1792112 0.014106,-0.1784084 0.0047,8.021e-4 0.0094,-0.1801634 0.014091,-0.179512 0.0047,7.028e-4 0.0094,-0.1809151 0.014105,-0.1803636 0.0047,5.515e-4 0.0094,-0.1816028 0.014091,-0.1811716 0.0047,4.313e-4 0.0094,-0.1820442 0.014104,-0.1817381 0.0047,3.11e-4 0.0094,-0.1823394 0.014092,-0.1821545 0.0047,1.859e-4 0.0094,-0.1824696 0.014091,-0.1824095 0.00473,6.02e-5 0.00941,-0.1824299 0.014105,-0.18249 0.0047,-6.02e-5 0.0094,-0.1822244 0.014091,-0.1824099 0.0047,-1.856e-4 0.00941,-0.1818484 0.014104,-0.1821543 0.0047,-3.108e-4 0.0094,-0.1813067 0.014092,-0.181738 0.0047,-4.311e-4 0.0094,-0.1805997 0.014104,-0.1811511 0.0047,-5.567e-4 0.0094,-0.1797224 0.014092,-0.1804043 0.0047,-6.795e-4 0.0094,-0.1786793 0.014104,-0.1794814 0.0047,-8.027e-4 0.0094,-0.177481 0.014091,-0.1784036 0.0047,-9.247e-4 0.0094,-0.176112 0.014092,-0.1771649 0.00473,-0.00105 0.00941,-0.1745826 0.014104,-0.1757558 0.0047,-0.00117 0.0094,-0.1728981 0.014091,-0.1741915 0.0047,-0.0013 0.00941,-0.17105238 0.014105,-0.17247148 0.0047,-0.00143 0.0094,-0.1690517 0.014091,-0.1705963 0.0047,-0.00154 0.0094,-0.1668956 0.014105,-0.1685604 0.0047,-0.00168 0.0094,-0.16459403 0.014091,-0.16638398 0.0047,-0.001797 0.0094,-0.16214227 0.014106,-0.16405779 0.0047,-0.001917 0.0094,-0.15953968 0.014091,-0.16157539 0.0047,-0.002037 0.0094,-0.15680693 0.014091,-0.15896312 0.00473,-0.002166 0.00941,-0.15392377 0.014105,-0.15621013 0.0047,-0.002285 0.0094,-0.15090523 0.014091,-0.15331207 0.0047,-0.002405 0.00941,-0.14776113 0.014105,-0.15029334 0.0047,-0.002535 0.0094,-0.14448686 0.014091,-0.14713946 0.0047,-0.002665 0.0094,-0.14108203 0.014105,-0.1438589 0.0047,-0.002775 0.0094,-0.13756106 0.014091,-0.14046141 0.0047,-0.002905 0.0094,-0.13392173 0.014104,-0.13694593 0.0047,-0.00304 0.0094,-0.1301697 0.014092,-0.1333168 0.0047,-0.00316 0.0094,-0.1263096 0.014091,-0.1295806 0.00473,-0.00328 0.00941,-0.122345 0.014104,-0.1257392 0.0047,-0.00341 0.0094,-0.1182818 0.014092,-0.1217992 0.0047,-0.00353 0.00941,-0.1141239 0.014104,-0.1177647 0.0047,-0.00365 0.0094,-0.1098778 0.014092,-0.1136384 0.0047,-0.00378 0.00941,-0.1055457 0.014105,-0.1094318 0.0047,-0.00391 0.0094,-0.1011334 0.014091,-0.1051447 0.0047,-0.00402 0.0094,-0.096641 0.014105,-0.1007774 0.0047,-0.00414 0.0094,-0.092082 0.014091,-0.096344 0.0047,-0.00428 0.0094,-0.087464 0.014091,-0.091841 0.00473,-0.0044 0.00941,-0.082786 0.014105,-0.087293 0.0047,-0.0045 0.0094,-0.078047 0.014091,-0.082675 0.0047,-0.00462 0.00941,-0.07327 0.014106,-0.078022 0.0047,-0.00475 0.0094,-0.06844 0.014091,-0.073314 0.0047,-0.00487 0.00941,-0.063581 0.014105,-0.068581 0.0047,-0.00499 0.0094,-0.058687 0.014091,-0.063807 0.0047,-0.00513 0.0094,-0.053769 0.014105,-0.059013 0.0047,-0.00525 0.0094,-0.048824 0.014091,-0.054195 0.0047,-0.00537 0.0094,-0.04387 0.014091,-0.049361 0.00473,-0.00549 0.00941,-0.038906 0.014105,-0.044521 0.0047,-0.00562 0.0094,-0.033931 0.014091,-0.039673 0.0047,-0.00574 0.00941,-0.028967 0.014105,-0.034829 0.0047,-0.00587 0.0094,-0.024009 0.014091,-0.029996 0.0047,-0.00599 0.00941,-0.019064 0.014105,-0.025172 0.0047,-0.00611 0.0094,-0.014136 0.014091,-0.020368 0.0047,-0.00623 0.0094,-0.00922 0.014105,-0.015585 0.0047,-0.00636 0.0094,-0.00436 0.014091,-0.010831 0.0047,-0.00648 0.0094,4.863e-4 0.014091,-0.00612 0.00473,-0.0066 0.00941,0.00529 0.014106,-0.00144 0.0047,-0.00673 0.0094,0.010043 0.014091,0.0032 0.0047,-0.00685 0.00941,0.014746 0.014105,0.00777 0.0047,-0.00698 0.0094,0.019401 0.014091,0.0123 0.0047,-0.0071 0.00941,0.023994 0.014104,0.016774 0.0047,-0.00722 0.0094,0.028512 0.014092,0.021171 0.0047,-0.00734 0.0094,0.032969 0.014104,0.025503 0.0047,-0.00748 0.0094,0.037346 0.014092,0.029755 0.0047,-0.00758 0.0094,0.041654 0.014091,0.033937 0.00473,-0.0077 0.00941,0.045866 0.014104,0.038028 0.0047,-0.00783 0.0094,0.049997 0.014092,0.042035 0.0047,-0.00796 0.00941,0.054034 0.014104,0.045952 0.0047,-0.00808 0.0094,0.057971 0.014091,0.04976 0.0047,-0.0082 0.00941,0.06181 0.014105,0.053482 0.0047,-0.00833 0.0094,0.065547 0.014091,0.057093 0.0047,-0.00845 0.0094,0.069178 0.014105,0.060603 0.0047,-0.00857 0.0094,0.072692 0.014091,0.063993 0.0047,-0.00869 0.0094,0.076097 0.014091,0.067272 0.00473,-0.00882 0.00941,0.079387 0.014105,0.070436 0.0047,-0.00894 0.0094,0.08255 0.014091,0.07348 0.0047,-0.00907 0.00941,0.085588 0.014105,0.076393 0.0047,-0.00919 0.0094,0.088502 0.014091,0.079186 0.0047,-0.00931 0.00941,0.091291 0.014105,0.081854 0.0047,-0.00944 0.0094,0.093947 0.014091,0.084381 0.0047,-0.00956 0.0094,0.09647 0.014105,0.086784 0.0047,-0.00968 0.0094,0.098861 0.014091,0.089049 0.0047,-0.00981 0.0094,0.1011081 0.014091,0.091176 0.00473,-0.00993 0.00941,0.1032232 0.014105,0.093164 0.0047,-0.010059 0.0094,0.1051978 0.014091,0.095016 0.00473,-0.010181 0.00941,0.1070311 0.014105,0.096726 0.0047,-0.010305 0.0094,0.1087219 0.014091,0.098293 0.0047,-0.01043 0.00941,0.1102703 0.014104,0.099717 0.0047,-0.010553 0.0094,0.1116757 0.014092,0.1009998 0.0047,-0.010677 0.0094,0.112937 0.014104,0.1021376 0.0047,-0.0108 0.0094,0.1140552 0.014092,0.1031321 0.0047,-0.010923 0.0094,0.11502899 0.014091,0.10398252 0.00473,-0.011046 0.00941,0.11585831 0.014104,0.10468886 0.0047,-0.0111698 0.0094,0.11654471 0.014092,0.10525259 0.00473,-0.0112915 0.00941,0.11708864 0.014105,0.10567114 0.0047,-0.0114173 0.0094,0.11748981 0.014091,0.10594693 0.0047,-0.011538 0.00941,0.11775053 0.014105,0.10608728 0.0047,-0.0116639 0.0094,0.11786613 0.014091,0.10608239 0.0047,-0.0117887 0.0094,0.11784586 0.014105,0.10593685 0.0047,-0.0119144 0.0094,0.11769055 0.014091,0.10565627 0.0047,-0.0120342 0.0094,0.11739457 0.014091,0.10523991 0.00473,-0.012159 0.00941,0.11696836 0.014105,0.10468832 0.0047,-0.0122797 0.0094,0.11640686 0.014091,0.10400645 0.00473,-0.0124055 0.00941,0.11571991 0.014105,0.10318913 0.0047,-0.0125253 0.0094,0.1149025 0.014091,0.10225144 0.0047,-0.0126511 0.00941,0.11395493 0.014105,0.10118333 0.0047,-0.012776 0.0094,0.1128918 0.014091,0.09999 0.0047,-0.012897 0.0094,0.1117084 0.014105,0.098686 0.0047,-0.013022 0.0094,0.1103997 0.014091,0.097253 0.0047,-0.013142 0.0094,0.1089857 0.014091,0.095718 0.00473,-0.013268 0.00941,0.10745109 0.014105,0.094057 0.0047,-0.013389 0.0094,0.1058167 0.014092,0.092304 0.00473,-0.013517 0.00941,0.1040717 0.014104,0.090432 0.0047,-0.013639 0.0094,0.1022315 0.014092,0.088472 0.0047,-0.01376 0.00941,0.1002909 0.014104,0.086406 0.0047,-0.013885 0.0094,0.09826 0.014091,0.084255 0.0047,-0.014011 0.0094,0.096139 0.014105,0.082004 0.0047,-0.01413 0.0094,0.093932 0.014091,0.079678 0.0047,-0.014255 0.0094,0.091646 0.014091,0.077266 0.00473,-0.014376 0.00941,0.089278 0.014105,0.074778 0.0047,-0.0145 0.0094,0.086838 0.014091,0.072211 0.00473,-0.01462 0.00941,0.084336 0.014105,0.069583 0.0047,-0.014746 0.0094,0.081763 0.014091,0.066891 0.0047,-0.014872 0.00941,0.079132 0.014105,0.064133 0.0047,-0.014993 0.0094,0.076449 0.014091,0.061325 0.0047,-0.015119 0.0094,0.07371 0.014105,0.058467 0.0047,-0.015244 0.0094,0.070927 0.014091,0.055558 0.0047,-0.015363 0.0094,0.068099 0.014091,0.05261 0.00473,-0.015489 0.00941,0.065241 0.014105,0.049632 0.0047,-0.015614 0.0094,0.062342 0.014091,0.046608 0.00473,-0.015734 0.00941,0.059429 0.014105,0.043569 0.0047,-0.01586 0.0094,0.056487 0.014091,0.040501 0.0047,-0.015981 0.00941,0.053527 0.014105,0.037422 0.0047,-0.016111 0.0094,0.050549 0.014091,0.034317 0.0047,-0.016226 0.0094,0.047571 0.014106,0.031218 0.0047,-0.016351 0.0094,0.044582 0.014091,0.028105 0.0047,-0.016476 0.0094,0.041604 0.014105,0.025002 0.0047,-0.016598 0.0094,0.03862 0.014091,0.021898 0.0047,-0.016724 0.0094,0.03565 0.014091,0.018809 0.00473,-0.016849 0.00941,0.032698 0.014105,0.015724 0.0047,-0.016969 0.0094,0.029766 0.014091,0.012672 0.0047,-0.017094 0.00941,0.026856 0.014105,0.00963 0.0047,-0.017218 0.0094,0.023974 0.014091,0.00663 0.0047,-0.017343 0.0094,0.021121 0.014105,0.00367 0.0047,-0.017465 0.0094,0.018307 0.014091,7.205e-4 0.0047,-0.01759 0.0094,0.015535 0.014104,-0.00219 0.0047,-0.01771 0.0094,0.012807 0.014092,-0.00504 0.0047,-0.017832 0.0094,0.010128 0.014091,-0.00781 0.00473,-0.017957 0.00941,0.0075 0.014105,-0.01058 0.0047,-0.018077 0.0094,0.00494 0.014091,-0.013268 0.0047,-0.018207 0.00941,0.00243 0.014104,-0.015906 0.0047,-0.018327 0.0094,-2e-5 0.014092,-0.018467 0.0047,-0.018453 0.0094,-0.0024 0.014104,-0.020975 0.0047,-0.018573 0.0094,-0.00471 0.014091,-0.023402 0.0047,-0.018698 0.0094,-0.00693 0.014105,-0.02576 0.0047,-0.018823 0.0094,-0.00909 0.014091,-0.028039 0.0047,-0.018949 0.0094,-0.011171 0.014092,-0.030242 0.00473,-0.019069 0.00941,-0.013168 0.014104,-0.032357 0.0047,-0.01919 0.0094,-0.015074 0.014091,-0.034387 0.0047,-0.019316 0.00941,-0.016894 0.014105,-0.036335 0.0047,-0.01944 0.0094,-0.018627 0.014091,-0.038187 0.0047,-0.019562 0.0094,-0.020262 0.014105,-0.039948 0.0047,-0.019687 0.0094,-0.021807 0.014091,-0.041618 0.0047,-0.019807 0.0094,-0.023252 0.014105,-0.043183 0.0047,-0.019937 0.0094,-0.024605 0.014091,-0.044663 0.0047,-0.020058 0.0094,-0.025855 0.014091,-0.04603 0.00473,-0.020182 0.00941,-0.027007 0.014104,-0.047309 0.0047,-0.020303 0.0094,-0.028045 0.014092,-0.048472 0.0047,-0.020429 0.00941,-0.028992 0.014105,-0.049542 0.0047,-0.020548 0.0094,-0.029829 0.014091,-0.050504 0.0047,-0.020673 0.0094,-0.030563 0.014105,-0.05136 0.0047,-0.020793 0.0094,-0.031188 0.014092,-0.052108 0.0047,-0.020918 0.0094,-0.031717 0.014105,-0.052756 0.0047,-0.021045 0.0094,-0.03213 0.014091,-0.053297 0.0047,-0.021166 0.0094,-0.032437 0.014092,-0.053728 0.00473,-0.021291 0.00941,-0.032638 0.014105,-0.054049 0.0047,-0.021417 0.0094,-0.032734 0.014091,-0.054275 0.0047,-0.021537 0.00941,-0.032724 0.014105,-0.054385 0.0047,-0.021656 0.0094,-0.032608 0.014092,-0.054389 0.0047,-0.021786 0.0094,-0.032392 0.014105,-0.054301 0.0047,-0.021907 0.0094,-0.032065 0.014091,-0.054095 0.0047,-0.022032 0.0094,-0.031646 0.014105,-0.053799 0.0047,-0.022153 0.0094,-0.031113 0.014092,-0.053392 0.0047,-0.022279 0.0094,-0.030486 0.014091,-0.052886 0.00473,-0.022404 0.00941,-0.029764 0.014105,-0.052288 0.0047,-0.022525 0.0094,-0.028937 0.014092,-0.051587 0.0047,-0.022645 0.00941,-0.028019 0.014105,-0.050796 0.0047,-0.02277 0.0094,-0.027012 0.014091,-0.049902 0.0047,-0.022895 0.00941,-0.025915 0.014105,-0.048928 0.0047,-0.02302 0.0094,-0.024721 0.014092,-0.047861 0.0047,-0.023145 0.0094,-0.023446 0.014104,-0.046712 0.0047,-0.023261 0.0094,-0.022082 0.014092,-0.04547 0.0047,-0.023392 0.0094,-0.020644 0.014092,-0.044156 0.00473,-0.023512 0.00941,-0.019125 0.014104,-0.042756 0.0047,-0.023638 0.0094,-0.01753 0.014092,-0.041287 0.0047,-0.023759 0.00941,-0.015855 0.014105,-0.039738 0.0047,-0.023883 0.0094,-0.01412 0.014092,-0.038129 0.0047,-0.024004 0.00941,-0.012315 0.014104,-0.036445 0.0047,-0.024128 0.0094,-0.010445 0.014092,-0.034699 0.0047,-0.024248 0.0094,-0.00851 0.014105,-0.032894 0.0047,-0.024374 0.0094,-0.00653 0.014091,-0.031033 0.0047,-0.0244996 0.0094,-0.0045 0.014092,-0.0291182 0.00473,-0.0246203 0.00941,-0.002405 0.014105,-0.0271527 0.0047,-0.0247511 0.0094,-2.7559e-4 0.014091,-0.0251464 0.0047,-0.0248719 0.00941,0.001907 0.014105,-0.0230952 0.0047,-0.0249907 0.0094,0.004122 0.014092,-0.021 0.0047,-0.0251175 0.00941,0.006359 0.014105,-0.0188788 0.0047,-0.0252422 0.0094,0.008634 0.014091,-0.0167237 0.0047,-0.025361 0.0094,0.0109471 0.014105,-0.0145416 0.0047,-0.0254828 0.0094,0.013278 0.014092,-0.0123296 0.0047,-0.0256126 0.0094,0.0156247 0.014091,-0.0101087 0.00473,-0.0257334 0.00941,0.0179874 0.014105,-0.007866 0.0047,-0.0258541 0.0094,0.0203631 0.014092,-0.00562 0.0047,-0.0259849 0.00941,0.0227398 0.014105,-0.003364 0.0047,-0.0260997 0.0094,0.0251314 0.014091,-0.001098 0.0047,-0.0262255 0.00941,0.0275131 0.014105,0.001168 0.0047,-0.0263493 0.0094,0.0298898 0.014092,0.003424 0.0047,-0.026475 0.0094,0.0322615 0.014104,0.00567 0.0047,-0.0266008 0.0094,0.0346182 0.014092,0.007886 0.0047,-0.0267215 0.0094,0.0369601 0.014092,0.0101137 0.00473,-0.0268413 0.00941,0.0392818 0.014104,0.0123147 0.0047,-0.0269672 0.0094,0.0415786 0.014092,0.0144868 0.0047,-0.0270879 0.00941,0.0438495 0.014105,0.0166378 0.0047,-0.0272177 0.0094,0.0460805 0.014091,0.018743 0.0047,-0.0273374 0.00941,0.0482884 0.014105,0.0208292 0.0047,-0.0274642 0.0094,0.0504536 0.014091,0.0228645 0.0047,-0.0275821 0.0094,0.0525746 0.014105,0.0248669 0.0047,-0.0277088 0.0094,0.0546509 0.014092,0.0268214 0.0047,-0.0278346 0.0094,0.0566763 0.014091,0.0287209 0.00473,-0.0279543 0.00941,0.058653 0.014105,0.030573 0.0047,-0.02808 0.0094,0.060573 0.014092,0.032367 0.0047,-0.028201 0.00941,0.062438 0.014105,0.034112 0.0047,-0.028326 0.0094,0.064234 0.014091,0.035781 0.0047,-0.028447 0.00941,0.065967 0.014105,0.037397 0.0047,-0.028572 0.0094,0.067638 0.014092,0.038941 0.0047,-0.028691 0.0094,0.069237 0.014104,0.04042 0.0047,-0.028817 0.0094,0.070767 0.014092,0.041824 0.0047,-0.028943 0.0094,0.072217 0.014092,0.043148 0.00473,-0.029062 0.00941,0.073595 0.014104,0.044405 0.0047,-0.029188 0.0094,0.074894 0.014092,0.045579 0.00473,-0.029314 0.00941,0.076107 0.014105,0.046672 0.0047,-0.029439 0.0094,0.077245 0.014092,0.047681 0.0047,-0.02956 0.00941,0.078298 0.014104,0.048614 0.0047,-0.029684 0.0094,0.079256 0.014092,0.049452 0.0047,-0.029804 0.0094,0.080139 0.014105,0.050208 0.0047,-0.02993 0.0094,0.080921 0.014091,0.050871 0.0047,-0.030056 0.0094,0.081622 0.014092,0.051446 0.00473,-0.030177 0.00941,0.08223 0.014105,0.051933 0.0047,-0.030302 0.0094,0.082746 0.014091,0.052323 0.00473,-0.030422 0.00941,0.083178 0.014105,0.05263 0.0047,-0.030546 0.0094,0.083504 0.014092,0.052836 0.0047,-0.030673 0.00941,0.083749 0.014105,0.052952 0.0047,-0.030794 0.0094,0.083894 0.014091,0.052982 0.0047,-0.030918 0.0094,0.083943 0.014105,0.052906 0.0047,-0.031043 0.0094,0.083904 0.014092,0.052742 0.0047,-0.031163 0.0094,0.083779 0.014091,0.052489 0.00473,-0.031283 0.00941,0.083554 0.014105,0.052145 0.0047,-0.031415 0.0094,0.083232 0.014092,0.051698 0.00473,-0.031535 0.00941,0.08283 0.014105,0.051172 0.0047,-0.031656 0.0094,0.08233 0.014091,0.050549 0.0047,-0.031782 0.00941,0.081748 0.014105,0.049842 0.0047,-0.031907 0.0094,0.081072 0.014092,0.04904 0.0047,-0.032026 0.0094,0.080308 0.014104,0.048158 0.0047,-0.032146 0.0094,0.079466 0.014092,0.04719 0.0047,-0.032271 0.0094,0.078534 0.014092,0.046137 0.00473,-0.032397 0.00941,0.077526 0.014105,0.045003 0.0047,-0.032523 0.0094,0.076434 0.014091,0.04379 0.00473,-0.032648 0.00941,0.075264 0.014105,0.042496 0.0047,-0.032769 0.0094,0.074022 0.014092,0.041126 0.0047,-0.032889 0.00941,0.072707 0.014104,0.039689 0.0047,-0.033015 0.0094,0.071318 0.014092,0.038177 0.0047,-0.03314 0.0094,0.069864 0.014106,0.036599 0.0047,-0.033259 0.0094,0.068339 0.01409,0.034955 0.0047,-0.033384 0.0094,0.066755 0.01409,0.033244 0.0047,-0.033504 0.0094,0.065111 0.0141,0.03148 0.0047,-0.033631 0.0094,0.063412 0.01409,0.029654 0.0047,-0.033756 0.0094,0.061656 0.01411,0.027778 0.0047,-0.033881 0.0094,0.059852 0.01409,0.025845 0.0047,-0.034002 0.0094,0.058 0.01411,0.023874 0.0047,-0.034128 0.0094,0.056104 0.01409,0.021852 0.0047,-0.034247 0.0094,0.054164 0.0141,0.019791 0.0047,-0.034373 0.0094,0.052192 0.01409,0.017695 0.0047,-0.034493 0.0094,0.050182 0.01409,0.015564 0.0047,-0.034618 0.0094,0.048148 0.01411,0.013404 0.0047,-0.034744 0.0094,0.046087 0.01409,0.011216 0.0047,-0.034865 0.0094,0.044 0.01411,0.009 0.0047,-0.03499 0.0094,0.041899 0.0141,0.00678 0.0047,-0.035115 0.0094,0.039779 0.01411,0.00455 0.0047,-0.035241 0.0094,0.037648 0.01409,0.00229 0.0047,-0.035361 0.0094,0.035514 0.01411,3e-5 0.0047,-0.035481 0.0094,0.03338 0.0141,-0.00224 0.0047,-0.035606 0.0094,0.031238 0.01409,-0.0045 0.0047,-0.035726 0.0094,0.029108 0.01411,-0.00674 0.0047,-0.035852 0.0094,0.026987 0.0141,-0.00898 0.0047,-0.035978 0.0094,0.024877 0.01411,-0.011221 0.0047,-0.036103 0.0094,0.022785 0.0141,-0.013443 0.0047,-0.036225 0.0094,0.020714 0.01411,-0.01563 0.0046,-0.03635 0.0094,0.018663 0.0141,-0.017806 0.0046,-0.036469 0.0094,0.016648 0.01411,-0.019947 0.0046,-0.036594 0.0094,0.014666 0.0141,-0.022047 0.0046,-0.03672 0.0094,0.012717 0.01411,-0.024129 0.0046,-0.036839 0.0094,0.010812 0.0141,-0.026155 0.0046,-0.036965 0.0094,0.00894 0.0141,-0.02814 0.0046,-0.037091 0.0094,0.00712 0.01411,-0.030086 0.0046,-0.03721 0.0094,0.00537 0.0141,-0.03197 0.0046,-0.037332 0.0094,0.00367 0.01411,-0.033801 0.0046,-0.037457 0.0094,0.00201 0.0141,-0.035581 0.0046,-0.037582 0.0094,4.164e-4 0.01411,-0.037292 0.0046,-0.037707 0.0094,-0.00111 0.0141,-0.038942 0.0046,-0.037828 0.0094,-0.00258 0.01411,-0.040521 0.0046,-0.037952 0.0094,-0.00397 0.0141,-0.042034 0.0046,-0.038073 0.0094,-0.00527 0.0141,-0.043465 0.0046,-0.038197 0.0094,-0.0065 0.01411,-0.044824 0.0046,-0.038323 0.0094,-0.00765 0.0141,-0.046102 0.0046,-0.038445 0.0094,-0.00872 0.01411,-0.047294 0.0046,-0.03857 0.0094,-0.00971 0.0141,-0.048408 0.0046,-0.038696 0.0094,-0.010616 0.01411,-0.049432 0.0046,-0.038816 0.0094,-0.011422 0.0141,-0.050359 0.0046,-0.038942 0.0094,-0.01214 0.01411,-0.051206 0.0046,-0.039061 0.0094,-0.012761 0.0141,-0.051948 0.0046,-0.039187 0.0094,-0.013288 0.0141,-0.0526 0.0046,-0.039307 0.0094,-0.013719 0.01411,-0.053151 0.0046,-0.039432 0.0094,-0.01405 0.0141,-0.053608 0.0046,-0.039553 0.0094,-0.014276 0.01411,-0.053959 0.0046,-0.039679 0.0094,-0.014406 0.0141,-0.05421 0.0046,-0.039803 0.0094,-0.014432 0.01411,-0.054355 0.0046,-0.039928 0.0094,-0.014356 0.0141,-0.054404 0.0046,-0.040049 0.0094,-0.014164 0.01411,-0.054339 0.0046,-0.040174 0.0094,-0.013879 0.0141,-0.054174 0.0046,-0.0403 0.0094,-0.013484 0.0141,-0.053903 0.0046,-0.04042 0.0094,-0.012982 0.01411,-0.053522 0.0046,-0.040546 0.0094,-0.012375 0.0141,-0.05304 0.0046,-0.040667 0.0094,-0.011659 0.01411,-0.052445 0.0046,-0.040791 0.0094,-0.010836 0.0141,-0.051753 0.0046,-0.040911 0.0094,-0.0099 0.01411,-0.050946 0.0046,-0.041036 0.0094,-0.00887 0.0141,-0.050031 0.0046,-0.041162 0.0094,-0.00773 0.01411,-0.049025 0.0046,-0.041282 0.0094,-0.00648 0.0141,-0.047901 0.0046,-0.041408 0.0094,-0.00515 0.0141,-0.046683 0.0046,-0.041528 0.0094,-0.00371 0.01411,-0.045359 0.0046,-0.041654 0.0094,-0.00216 0.0141,-0.043935 0.0046,-0.041779 0.0094,-5.113e-4 0.01411,-0.042416 0.0046,-0.041899 0.0094,0.00124 0.0141,-0.040791 0.0046,-0.042025 0.0094,0.00307 0.01411,-0.039081 0.0046,-0.042151 0.0094,0.005 0.0141,-0.037271 0.0046,-0.04227 0.0094,0.00701 0.01411,-0.035372 0.0046,-0.042396 0.0094,0.00912 0.0141,-0.033385 0.0046,-0.042521 0.0094,0.011333 0.0141,-0.031309 0.0046,-0.042642 0.0094,0.013614 0.01411,-0.029148 0.0046,-0.0427664 0.0094,0.015976 0.0141,-0.0269112 0.0046,-0.0428873 0.0094,0.0184236 0.01411,-0.0245905 0.0046,-0.043013 0.0094,0.02094 0.0141,-0.0221978 0.0049,-0.0431388 0.0094,0.0235274 0.01411,-0.0197302 0.0049,-0.0432586 0.0094,0.0261895 0.01414,-0.0171948 0.0045,-0.0433833 0.0093,0.0289116 0.01411,-0.0145966 0.0045,-0.0435041 0.0093,0.0317005 0.01411,-0.0119294 0.0045,-0.0436289 0.0093,0.0345424 0.01411,-0.009204 0.0045,-0.0437487 0.0093,0.0374421 0.01396,-0.006419 0.0049,-0.0438745 0.0094,0.0403947 0.01411,-0.003614 0.0049,-0.0440002 0.0094,0.0433893 0.01411,-7.3208e-4 0.0049,-0.044126 0.0094,0.0464279 0.01412,0.002187 0.0049,-0.0442457 0.0094,0.0495102 0.01411,0.005141 0.0049,-0.0443716 0.0094,0.0526246 0.01411,0.008126 0.0049,-0.0444914 0.0094,0.0557689 0.01412,0.0111508 0.0045,-0.0446171 0.0094,0.0589382 0.01411,0.0142002 0.0045,-0.0447429 0.0094,0.0621274 0.01412,0.0172647 0.0045,-0.0448626 0.0094,0.0653366 0.01411,0.0203491 0.0045,-0.0449875 0.0094,0.0685597 0.01412,0.0234465 0.0045,-0.0451093 0.0094,0.0717888 0.01411,0.0265548 0.0045,-0.045234 0.0094,0.0750189 0.01412,0.0296593 0.0045,-0.0453548 0.0093,0.078253 0.01411,0.032774 0.0045,-0.045484 0.0093,0.081471 0.01412,0.035872 0.0045,-0.045604 0.0093,0.084687 0.01411,0.038961 0.0045,-0.04573 0.0093,0.087887 0.01411,0.042035 0.0045,-0.045851 0.0093,0.09107 0.01412,0.045093 0.0045,-0.045977 0.0093,0.094223 0.01397,0.048122 0.0046,-0.046096 0.0094,0.097348 0.01411,0.051125 0.0046,-0.046222 0.0094,0.1004362 0.01411,0.05409 0.0046,-0.046347 0.0094,0.103485 0.01411,0.057017 0.0046,-0.046468 0.0094,0.1064934 0.01411,0.059901 0.0046,-0.046594 0.0094,0.10945177 0.01411,0.062734 0.0046,-0.0467131 0.0094,0.1123603 0.01411,0.065522 0.0045,-0.046839 0.0094,0.1152033 0.01411,0.068244 0.0045,-0.046964 0.0094,0.1179912 0.01411,0.070907 0.0045,-0.047089 0.0094,0.1207091 0.01411,0.0735 0.0045,-0.047204 0.0094,0.1233616 0.01411,0.076031 0.0045,-0.04733 0.0094,0.125934 0.01411,0.078478 0.0045,-0.047455 0.0094,0.1284309 0.01411,0.080856 0.0045,-0.047581 0.0093,0.1308429 0.01411,0.083142 0.0045,-0.047706 0.0093,0.1331645 0.01411,0.085339 0.0045,-0.047825 0.0093,0.1354008 0.01411,0.087454 0.0045,-0.047951 0.0093,0.1375371 0.01411,0.089465 0.0045,-0.048073 0.0093,0.1395778 0.01411,0.091382 0.0045,-0.048197 0.0093,0.1415133 0.01397,0.093196 0.0046,-0.048323 0.0094,0.1433435 0.01411,0.094899 0.0046,-0.048443 0.0094,0.1450636 0.01411,0.096495 0.0046,-0.048563 0.0094,0.146673 0.01411,0.097984 0.0046,-0.048688 0.0094,0.1481673 0.01411,0.099353 0.0046,-0.048813 0.0094,0.1495413 0.01411,0.1006017 0.0046,-0.048933 0.0094,0.1507948 0.01411,0.101735 0.0045,-0.04906 0.0094,0.1519182 0.01411,0.1027378 0.0045,-0.049186 0.0094,0.1529209 0.01411,0.1036106 0.0045,-0.049306 0.0094,0.153798 0.01411,0.1043673 0.0045,-0.049431 0.0094,0.1545356 0.01411,0.1049793 0.0045,-0.049551 0.0094,0.1551422 0.01411,0.1054658 0.0045,-0.049676 0.0094,0.1556137 0.01411,0.1058162 0.0045,-0.049802 0.0093,0.1559499 0.01411,0.106022 0.0045,-0.049919 0.0093,0.1561501 0.01411,0.1061028 0.0045,-0.050046 0.0093,0.1562049 0.01411,0.1060374 0.0045,-0.050172 0.0093,0.1561198 0.01411,0.1058262 0.0045,-0.05029 0.0093,0.1558895 0.01411,0.1054959 0.0045,-0.050433 0.0093,0.1554936 0.01397,0.1049494 0.0046,-0.050542 0.0094,0.1550412 0.01411,0.1043971 0.0046,-0.050693 0.0094,0.1543402 0.01411,0.1035455 0.0046,-0.050794 0.0094,0.1535877 0.01411,0.1026425 0.0046,-0.050896 0.0094,0.1526351 0.01411,0.1015893 0.0046,-0.050997 0.0094,0.1515322 0.01411,0.1003862 0.0046,-0.051148 0.0094,0.1503282 0.01411,0.099032 0.0045,-0.051299 0.0094,0.1489244 0.01411,0.097527 0.0045,-0.0514 0.0094,0.1474203 0.01411,0.095873 0.0045,-0.0515 0.0094,0.1457651 0.01411,0.094118 0.0045,-0.051644 0.0094,0.1439601 0.01411,0.092213 0.0045,-0.051794 0.0094,0.1420045 0.01411,0.090107 0.0045,-0.051896 0.0094,0.139948 0.01411,0.087952 0.0045,-0.052048 0.0093,0.1377421 0.01411,0.085594 0.0045,-0.052148 0.0093,0.1353858 0.01411,0.083136 0.0045,-0.052299 0.0093,0.1329285 0.01411,0.08053 0.0045,-0.0524 0.0093,0.1303214 0.01411,0.077772 0.0045,-0.052501 0.0093,0.1276135 0.01411,0.074964 0.0045,-0.052653 0.0093,0.124756 0.01397,0.071955 0.0046,-0.052754 0.0094,0.1217977 0.01411,0.068896 0.0046,-0.052905 0.0094,0.1186375 0.01411,0.065642 0.0046,-0.053005 0.0094,0.1154287 0.01411,0.062328 0.0046,-0.053148 0.0094,0.1121197 0.01411,0.058865 0.0046,-0.053248 0.0094,0.1086593 0.01411,0.05531 0.0046,-0.0534 0.0094,0.1050991 0.01411,0.051593 0.0045,-0.053501 0.0094,0.1014891 0.01411,0.047885 0.0045,-0.053653 0.0094,0.097727 0.01411,0.043976 0.0045,-0.053704 0.0094,0.093917 0.01411,0.040059 0.0045,-0.053856 0.0094,0.090007 0.01411,0.036007 0.0045,-0.054006 0.0094,0.085994 0.01411,0.031837 0.0045,-0.054108 0.0094,0.081884 0.01411,0.027624 0.0045,-0.0542 0.0093,0.077722 0.01411,0.02337 0.0045,-0.054358 0.0093,0.07346 0.01411,0.018999 0.0045,-0.054501 0.0093,0.069146 0.01411,0.014535 0.0045,-0.054653 0.0093,0.064783 0.01411,0.010029 0.0045,-0.054754 0.0093,0.060369 0.01411,0.00547 0.0045,-0.054854 0.0093,0.055905 0.01397,8.408e-4 0.0046,-0.054956 0.0094,0.05134 0.01411,-0.0038 0.0046,-0.055108 0.0094,0.046735 0.01411,-0.00846 0.0046,-0.055209 0.0094,0.042169 0.01411,-0.013182 0.0046,-0.055361 0.0094,0.037511 0.01411,-0.018 0.0046,-0.05546 0.0094,0.032847 0.01411,-0.022766 0.0046,-0.055612 0.0094,0.02813 0.01411,-0.027582 0.0045,-0.055713 0.0094,0.023463 0.01411,-0.032391 0.0045,-0.055864 0.0094,0.018705 0.01411,-0.03726 0.0045,-0.055964 0.0094,0.01399 0.01411,-0.04212 0.0045,-0.056057 0.0094,0.00927 0.01411,-0.046936 0.0045,-0.056209 0.0094,0.00455 0.01411,-0.051753 0.0045,-0.056361 0.0094,-1.504e-4 0.01411,-0.056611 0.0045,-0.056462 0.0093,-0.00488 0.01411,-0.061421 0.0045,-0.056613 0.0093,-0.00947 0.01411,-0.066186 0.0045,-0.056713 0.0093,-0.01414 0.01411,-0.070954 0.0045,-0.056864 0.0093,-0.018747 0.01411,-0.075663 0.0045,-0.056965 0.0093,-0.023311 0.01411,-0.080378 0.0045,-0.057067 0.0093,-0.027775 0.01397,-0.084992 0.0046,-0.057218 0.0094,-0.032239 0.01411,-0.089556 0.0046,-0.057361 0.0094,-0.036654 0.01411,-0.094118 0.0046,-0.057461 0.0094,-0.041017 0.01411,-0.098581 0.0046,-0.057562 0.0094,-0.045279 0.01411,-0.1029435 0.0046,-0.057712 0.0094,-0.049492 0.01411,-0.1073058 0.0046,-0.057813 0.0094,-0.053602 0.01411,-0.1115673 0.0045,-0.057915 0.0094,-0.057613 0.01411,-0.1156801 0.0045,-0.058066 0.0094,-0.061623 0.01411,-0.1197917 0.0045,-0.058218 0.0094,-0.06549 0.01411,-0.1238028 0.0045,-0.058319 0.0094,-0.069248 0.01411,-0.1276633 0.0045,-0.05847 0.0094,-0.072906 0.01411,-0.1314749 0.0045,-0.058572 0.0094,-0.07647 0.01411,-0.1351354 0.0045,-0.058664 0.0093,-0.079924 0.01411,-0.1386956 0.0045,-0.058815 0.0093,-0.083288 0.01411,-0.1422046 0.0045,-0.058932 0.0093,-0.086452 0.01411,-0.1455103 0.0045,-0.059058 0.0093,-0.08955 0.01411,-0.1487284 0.0045,-0.059185 0.0093,-0.09252 0.01411,-0.1518231 0.0045,-0.059302 0.0093,-0.095346 0.01397,-0.1547764 0.0046,-0.059428 0.0094,-0.09805 0.01411,-0.1576039 0.0046,-0.05955 0.0094,-0.1006118 0.01411,-0.1602868 0.0046,-0.059675 0.0094,-0.1030386 0.01411,-0.1628342 0.0046,-0.059801 0.0094,-0.1053152 0.01411,-0.1652409 0.0046,-0.059923 0.0094,-0.1074462 0.01411,-0.1674922 0.0046,-0.060041 0.0094,-0.109427 0.01411,-0.1695985 0.0045,-0.060166 0.0094,-0.111257 0.01411,-0.1715489 0.0045,-0.060292 0.0094,-0.1129369 0.01411,-0.1733542 0.0045,-0.060411 0.0094,-0.1144562 0.01411,-0.1749936 0.0045,-0.060537 0.0094,-0.1158153 0.01411,-0.176478 0.0045,-0.060663 0.0094,-0.1170186 0.01411,-0.1778018 0.0045,-0.060789 0.0094,-0.1180564 0.01411,-0.178965 0.0045,-0.06091 0.0093,-0.1189341 0.01411,-0.17996303 0.0045,-0.061035 0.0093,-0.1196411 0.01411,-0.1808003 0.0045,-0.061154 0.0093,-0.1201876 0.01411,-0.1814623 0.0045,-0.061279 0.0093,-0.1205685 0.01411,-0.18196858 0.0045,-0.0614047 0.0093,-0.12077925 0.01411,-0.18230452 0.0045,-0.0615244 0.0093,-0.12081927 0.01397,-0.18247001"
     title="sin(x)+sin(2*x)+sin(3*x)+0.2*x"
     id="path4-8"
     clip-path="url(#clipPath3)"
     inkscape:transform-center-x="0.21226418"
     inkscape:transform-center-y="-1.9014355" />
  <text
     xml:space="preserve"
     style="font-style:normal;font-variant:normal;font-weight:normal;font-stretch:normal;font-size:12.6821px;line-height:1.5;font-family:Quicksand;-inkscape-font-specification:Quicksand;fill:none;stroke:#000000;stroke-width:0.963056;stroke-dasharray:none;stroke-opacity:1"
     x="0.51504034"
     y="9.5348997"
     id="text4"
     transform="scale(1.0027304,0.99727699)"><tspan
       sodipodi:role="line"
       id="tspan4"
       style="line-height:1.5;stroke:#000000;stroke-width:0.963056;stroke-dasharray:none;stroke-opacity:1"
       x="0.51504034"
       y="9.5348997">Q</tspan></text>
</svg>
